<svg width="165" height="264" viewBox="0 0 165 264" fill="none" xmlns="http://www.w3.org/2000/svg">
<path d="M31.3285 67.7846C32.3135 69.4231 34.3577 69.5099 36.273 69.623C39.3365 69.8004 42.4702 69.87 45.6607 69.8199C57.083 69.6356 67.7121 70.7499 78.5523 71.5574C88.2827 72.2851 98.5023 72.2784 108.767 72.0637C112.757 71.9804 117.44 70.6339 121.836 69.5029C126.492 68.3056 131.182 66.6625 135.855 65.2513C139.679 64.0961 143.094 62.0967 146.332 59.8812C151.007 56.6808 152.284 53.037 149.581 50.5467C147.351 48.4946 144.419 47.127 140.27 46.9112C133 46.5326 125.572 46.4906 117.8 47.1235C116.395 47.2385 114.955 47.4154 113.507 47.6627C102.626 49.5278 91.7578 51.3272 80.841 53.3506C77.2316 54.0207 73.4815 55.1007 69.8158 56.3087C59.9392 59.5635 50.169 62.0521 40.4653 63.6162C37.3495 64.1198 34.0865 64.6471 31.3285 67.7846Z" fill="#FF6900"/>
<path d="M-3.89923 68.7261C1.82572 74.0568 7.05474 78.8749 12.2121 83.7578C14.2411 85.6821 16.3346 87.5682 18.0105 89.7745C23.3427 96.8026 28.4964 103.973 33.7182 111.09C34.1649 111.703 34.4407 112.466 35.0307 112.941C43.4469 119.662 51.2519 127.058 63.1419 130.127C73.2134 132.728 85.1557 129.546 97.4375 123.967C105.564 120.276 111.161 109.625 107.552 104.917C104.34 100.728 100.41 97.0604 96.3761 93.5457C93.6909 91.2067 90.4778 89.3013 87.1423 87.602C69.9576 78.8427 52.8702 69.9749 32.782 64.6752C24.5565 62.5038 14.9058 63.3096 5.35177 63.9015C2.46856 64.0826 -0.838483 65.2537 -3.89923 68.7261Z" fill="#E6007E"/>
<path d="M2.91292 34.953C2.05694 38.4674 1.14656 40.2679 1.35373 41.695C2.30764 48.2856 4.00555 54.6524 4.61948 61.3298C5.40041 69.7795 5.40283 78.4519 5.71062 87.0364C5.76293 88.4661 5.59821 89.9464 5.59448 91.39C5.54523 111.259 5.55201 131.114 5.42868 150.996C5.40472 154.592 5.14869 158.281 4.50779 161.937C3.54355 167.462 5.13042 171.859 7.57693 175.899C10.3464 180.468 14.4563 181.521 20.4138 179.554C29.4496 176.571 39.1335 166.316 41.2446 156.892C44.4268 142.682 44.6008 128.838 40.8486 116.191C36.3666 101.089 33.339 85.2335 26.3651 71.3413C25.7669 70.1564 25.3253 68.8244 25.0654 67.4647C22.4642 53.842 13.9271 44.826 2.91292 34.953Z" fill="#FFFF00"/>
<path d="M30.7907 52.0298C32.1789 49.7896 32.616 48.4887 33.502 47.7602C37.5855 44.3957 41.9782 41.3966 45.9133 37.871C50.8929 33.4122 55.5415 28.5765 60.3198 23.8882C61.1154 23.1067 61.8137 22.2278 62.5857 21.4204C73.2041 10.3229 83.8481 -0.751472 94.4307 -11.8812C96.3447 -13.8954 98.1724 -16.0363 99.7616 -18.2842C102.164 -21.6792 105.438 -23.6149 109.019 -25.0716C113.069 -26.7183 116.01 -25.9676 118.403 -22.9306C122.031 -18.3253 122.137 -9.45051 118.308 -3.50669C112.533 5.45666 105.216 13.2355 96.2686 19.0677C85.582 26.0316 75.3353 33.8898 63.8566 39.3676C62.8746 39.8341 61.9053 40.4335 61.0269 41.1076C52.2228 47.8577 42.4522 50.1081 30.7907 52.0298Z" fill="#7BFF00"/>
</svg>
