<svg width="158" height="152" viewBox="0 0 158 152" fill="none" xmlns="http://www.w3.org/2000/svg">
<path d="M44.1924 50.1011C43.3578 49.8624 42.7432 49.8303 42.4692 49.5854C41.1793 48.4307 39.8633 47.3043 39.14 45.8117C37.8416 43.1341 36.2633 40.5715 35.3196 37.75C34.1914 34.3776 33.2948 30.9437 33.6194 27.1926C33.7228 25.9866 33.9477 24.7354 34.4211 23.5043C35.2514 21.349 38.4174 19.6026 41.3701 19.5324C42.253 19.5114 43.0221 19.6674 43.4872 20.1138C44.1297 20.732 44.9283 21.3143 45.2242 22.0707C45.9008 23.8007 46.5453 25.5385 46.4471 27.5287C46.2605 31.2926 46.296 35.0181 46.2739 38.7531C46.258 41.2257 45.8252 43.7431 45.1088 46.299C44.8966 47.0527 44.8249 47.7989 44.6606 48.5507C44.5736 48.9444 44.4238 49.3434 44.1924 50.1011Z" fill="#FF6900"/>
<path d="M41.4926 49.4008C39.8938 50.0124 39.2133 49.7534 38.5511 49.5251C37.4937 49.159 36.5007 48.7323 35.5881 48.242C32.3179 46.4855 28.2526 45.4438 24.3682 44.2303C20.8801 43.1418 17.8286 41.6433 14.9315 40.0417C13.8044 39.4194 13.4768 38.112 13.0627 36.9468C12.6233 35.7133 12.5293 34.2688 12.2555 32.9329C12.0323 31.8404 12.6032 30.4176 13.399 28.9216C14.5487 26.7598 17.0684 24.8912 19.8594 24.1376C22.1609 23.5162 24.126 23.3151 25.5385 23.823C28.0144 24.7114 30.2683 25.7797 32.0881 27.2089C32.4168 27.4677 32.7063 27.7601 32.9423 28.0863C34.7113 30.5395 36.5279 32.9608 38.1815 35.492C38.7271 36.3297 38.9886 37.377 39.1226 38.4711C39.4846 41.4186 40.4247 43.9967 42.0798 46.1398C42.611 46.8276 43.1665 47.5491 41.4926 49.4008Z" fill="#7BFF00"/>
<path d="M43.8741 50.61C40.4878 51.3748 37.4166 52.0625 34.3321 52.7695C33.1169 53.0481 31.905 53.314 30.6408 53.6784C26.6145 54.8379 22.5638 56.0406 18.5216 57.2276C18.1747 57.3296 17.7972 57.4765 17.4799 57.5388C12.9735 58.4217 8.3028 59.4925 4.65317 59.3467C1.56144 59.2231 0.544871 57.7182 0.47462 55.6703C0.428074 54.3153 3.82367 51.6245 6.52826 50.85C8.93459 50.1612 11.2622 49.6345 13.5465 49.1475C15.0663 48.8237 16.5078 48.6299 17.8854 48.4893C24.9881 47.7632 32.117 47.0068 38.3311 47.2284C40.8763 47.3192 42.4449 48.1521 44.0838 48.9328C44.5774 49.169 44.7365 49.6484 43.8741 50.61Z" fill="#FF6900"/>
<path d="M41.356 57.1718C40.5096 57.7282 40.1084 58.0723 39.7263 58.2292C37.9656 58.9525 36.211 59.5546 34.4504 60.332C32.2221 61.3154 29.9902 62.4239 27.7595 63.4834C27.3877 63.6599 27.0178 63.8696 26.6464 64.0547C21.5358 66.602 16.4248 69.1407 11.3159 71.6988C10.3917 72.1617 9.45957 72.6657 8.56184 73.2133C7.20593 74.0402 5.96611 74.4043 4.76019 74.6151C3.39523 74.8534 2.84464 74.4747 2.94546 73.4784C3.09828 71.9679 5.07881 69.4462 7.36118 67.977C10.8022 65.762 14.354 63.9694 17.8643 62.821C22.0569 61.4496 26.3436 59.8 30.3939 58.895C30.7399 58.8179 31.1126 58.7029 31.4802 58.5616C35.1631 57.1444 38.0651 57.0581 41.356 57.1718Z" fill="#32B9CC"/>
<path d="M65.1081 25.6608C64.5066 25.0809 63.5775 25.0699 63.0329 25.6362C62.4883 26.2024 62.5343 27.1315 63.1358 27.7113C63.7373 28.2912 64.6664 28.3022 65.211 27.736C65.7556 27.1697 65.7095 26.2406 65.1081 25.6608Z" fill="#32B9CC"/>
<path d="M56.4861 23.8342C55.8846 23.2543 54.9555 23.2432 54.4109 23.8094C53.8663 24.3756 53.9125 25.3047 54.5139 25.8846C55.1154 26.4645 56.0445 26.4756 56.5891 25.9094C57.1337 25.3432 57.0876 24.4141 56.4861 23.8342Z" fill="#32B9CC"/>
<path d="M68.4692 24.2188C68.1686 23.929 67.7043 23.9235 67.4321 24.2064C67.1599 24.4894 67.183 24.9538 67.4835 25.2436C67.7841 25.5334 68.2485 25.5389 68.5207 25.2559C68.7929 24.9729 68.7698 24.5086 68.4692 24.2188Z" fill="#32B9CC"/>
<path d="M15.2324 70.929C15.8419 71.6341 17.0317 71.5876 17.8899 70.825C18.748 70.0624 18.9496 68.8727 18.3401 68.1676C17.7307 67.4625 16.5409 67.509 15.6827 68.2716C14.8246 69.0341 14.6229 70.2239 15.2324 70.929Z" fill="#FF6900"/>
<path d="M10.3212 78.8228C10.9296 79.5256 12.1194 79.4753 12.9786 78.7105C13.8378 77.9456 14.041 76.7559 13.4325 76.0531C12.8241 75.3503 11.6343 75.4006 10.7751 76.1654C9.91594 76.9303 9.71269 78.12 10.3212 78.8228Z" fill="#FF6900"/>
<path d="M10.7537 72.0644C11.0579 72.4157 11.6526 72.3905 12.0821 72.0082C12.5116 71.6259 12.6132 71.0311 12.309 70.6798C12.0049 70.3285 11.4101 70.3536 10.9806 70.736C10.5512 71.1183 10.4496 71.713 10.7537 72.0644Z" fill="#FF6900"/>
<path d="M24.1468 24.1471C24.831 24.6268 25.7459 24.4895 26.1904 23.8405C26.6349 23.1915 26.4405 22.2766 25.7564 21.7969C25.0722 21.3173 24.1573 21.4546 23.7128 22.1036C23.2684 22.7525 23.4627 23.6675 24.1468 24.1471Z" fill="#FFFF00"/>
<path d="M22.152 31.0449C22.8416 31.5408 23.7565 31.4299 24.1956 30.7972C24.6346 30.1645 24.4316 29.2496 23.742 28.7537C23.0524 28.2577 22.1375 28.3686 21.6984 29.0013C21.2594 29.634 21.4625 30.5489 22.152 31.0449Z" fill="#FFFF00"/>
<path d="M21.0136 26.014C21.3584 26.262 21.8159 26.2065 22.0354 25.8902C22.2549 25.5738 22.1534 25.1164 21.8086 24.8684C21.4638 24.6204 21.0064 24.6759 20.7868 24.9922C20.5673 25.3086 20.6689 25.766 21.0136 26.014Z" fill="#FFFF00"/>
<path d="M20.3808 97.1955C20.7571 96.5586 20.4654 95.6569 19.7293 95.1814C18.9932 94.7059 18.0915 94.8367 17.7152 95.4736C17.3389 96.1104 17.6307 97.0122 18.3668 97.4877C19.1028 97.9631 20.0046 97.8323 20.3808 97.1955Z" fill="#FFFF00"/>
<path d="M27.4491 98.7677C27.8153 98.1612 27.5073 97.2594 26.7611 96.7536C26.0149 96.2478 25.1132 96.3294 24.747 96.936C24.3808 97.5425 24.6889 98.4442 25.435 98.95C26.1812 99.4559 27.0829 99.3742 27.4491 98.7677Z" fill="#FFFF00"/>
<path d="M22.4338 100.152C22.6169 99.8487 22.4629 99.3978 22.0898 99.1449C21.7167 98.892 21.2658 98.9328 21.0827 99.236C20.8996 99.5393 21.0537 99.9902 21.4268 100.243C21.7998 100.496 22.2507 100.455 22.4338 100.152Z" fill="#FFFF00"/>
<path d="M130.349 31.7676C130.188 32.4544 130.748 33.276 131.6 33.6026C132.452 33.9293 133.274 33.6374 133.435 32.9506C133.597 32.2638 133.036 31.4422 132.184 31.1155C131.332 30.7889 130.511 31.0808 130.349 31.7676Z" fill="#FFF155"/>
<path d="M123.071 31.7266C122.949 32.2618 123.572 33.0834 124.463 33.5617C125.354 34.0399 126.176 33.9938 126.298 33.4586C126.42 32.9234 125.797 32.1018 124.906 31.6235C124.015 31.1453 123.193 31.1914 123.071 31.7266Z" fill="#FFF155"/>
<path d="M127.644 29.3223C127.582 29.59 127.894 30.0008 128.339 30.2399C128.785 30.4789 129.195 30.4556 129.256 30.1879C129.318 29.9202 129.006 29.5094 128.561 29.2703C128.115 29.0313 127.705 29.0546 127.644 29.3223Z" fill="#FFF155"/>
<path d="M52.7504 30.7319C52.9356 31.2298 53.782 31.1905 54.6409 30.6443C55.4998 30.098 56.046 29.2516 55.8607 28.7537C55.6755 28.2559 54.8291 28.2951 53.9702 28.8414C53.1113 29.3877 52.5652 30.2341 52.7504 30.7319Z" fill="#FFFF00"/>
<path d="M47.1695 35.494C47.3297 35.9144 48.1761 35.7496 49.06 35.1258C49.9439 34.5021 50.5305 33.6557 50.3702 33.2353C50.21 32.8149 49.3636 32.9798 48.4797 33.6035C47.5958 34.2272 47.0092 35.0737 47.1695 35.494Z" fill="#FFFF00"/>
<path d="M49.1901 30.375C49.2703 30.5853 49.6933 30.5031 50.135 30.1913C50.5767 29.8796 50.8698 29.4564 50.7897 29.246C50.7095 29.0357 50.2865 29.118 49.8448 29.4297C49.4031 29.7415 49.11 30.1647 49.1901 30.375Z" fill="#FFFF00"/>
<path d="M117.403 39.3595C118.613 40.2131 119.205 40.2394 119.779 40.2807C120.694 40.345 121.565 40.3518 122.382 40.2951C125.305 40.0894 128.769 40.5752 132.111 40.8973C135.113 41.188 137.82 41.0873 140.418 40.8766C141.427 40.7948 141.89 40.041 142.401 39.4035C142.942 38.7286 143.234 37.8186 143.656 37.031C144.002 36.3861 143.749 35.3006 143.325 34.103C142.712 32.3729 140.94 30.4416 138.781 29.1558C137.002 28.0961 135.432 27.4038 134.207 27.3296C132.06 27.1993 130.065 27.2479 128.371 27.6552C128.064 27.7291 127.785 27.836 127.544 27.9799C125.739 29.0658 123.898 30.1169 122.175 31.2864C121.606 31.6737 121.237 32.2782 120.964 32.9493C120.23 34.7574 119.08 36.1611 117.412 37.0771C116.877 37.3721 116.317 37.6808 117.403 39.3595Z" fill="#7BFF00"/>
<path d="M109.406 42.6961C112.796 44.3893 115.872 45.9201 118.958 47.4703C120.173 48.0811 121.388 48.6808 122.636 49.3751C126.61 51.5866 130.6 53.8402 134.584 56.0779C134.927 56.2708 135.291 56.5079 135.61 56.6595C140.153 58.8056 144.825 61.1535 148.698 62.2087C151.979 63.103 153.39 62.2364 153.928 60.6357C154.285 59.5768 151.321 56.3535 148.65 54.8717C146.274 53.5531 143.943 52.3883 141.65 51.2696C140.124 50.525 138.652 49.9089 137.233 49.355C129.924 46.4999 122.594 43.6124 116.004 41.7941C113.306 41.0492 111.467 41.2066 109.565 41.2991C108.992 41.3277 108.716 41.6569 109.406 42.6961Z" fill="#FF6900"/>
<path d="M109.117 50.3761C109.79 51.1703 110.04 51.6547 110.424 51.886C112.198 52.9546 114.067 53.8593 115.794 54.9999C117.98 56.4427 120.063 58.0548 122.186 59.6003C122.54 59.8575 122.863 60.1599 123.209 60.4289C127.97 64.1313 132.74 67.8218 137.49 71.5389C138.349 72.2115 139.184 72.9394 139.933 73.7246C141.067 74.9104 142.441 75.467 143.901 75.816C145.554 76.2104 146.63 75.7306 147.352 74.3856C148.446 72.3458 147.924 68.8473 146.084 66.748C143.309 63.583 140.019 60.9802 136.23 59.2454C131.705 57.1742 127.29 54.7238 122.556 53.2871C122.152 53.1651 121.743 52.99 121.365 52.7799C117.572 50.6746 113.696 50.4014 109.117 50.3761Z" fill="#32B9CC"/>
<path d="M114.408 48.0707C114.158 47.4442 113.917 47.1693 113.948 46.8609C114.092 45.4388 114.416 43.9899 114.477 42.5825C114.555 40.8018 114.445 39.0517 114.409 37.2897C114.402 36.9962 114.344 36.7134 114.325 36.4222C114.058 32.4179 113.805 28.4104 113.521 24.4105C113.469 23.6869 113.36 22.9676 113.161 22.2917C112.859 21.2703 113.182 20.2295 113.715 19.1773C114.319 17.9872 115.287 17.3769 116.737 17.1969C118.934 16.9238 121.381 18.0557 122.006 19.753C122.949 22.3126 123.168 25.0892 122.433 28.0043C121.555 31.486 121.035 34.9783 119.546 38.4568C119.418 38.7541 119.33 39.0657 119.285 39.3652C118.838 42.3656 116.913 45.0119 114.408 48.0707Z" fill="#32B9CC"/>
<path d="M45.789 81.5574L46.2213 63.6352L48.032 62.8143L47.8272 71.4438L54.0278 60.096L56.5777 58.94L51.2614 68.5689L57.291 76.3429L55.2677 77.2602L50.1461 70.598L47.7461 74.9146L47.5997 80.7365L45.789 81.5574ZM57.1893 76.389L62.4719 56.2678L64.606 55.3003L69.2364 70.9273L67.4811 71.7231L66.1358 67.2304L60.6573 69.7141L59.1756 75.4885L57.1893 76.389ZM61.1867 67.6482L65.6674 65.6169L64.5397 61.6784C64.098 60.1133 63.773 58.7895 63.5647 57.707C63.394 58.8001 63.1071 60.1353 62.7043 61.7125L61.1867 67.6482ZM71.0009 70.1273L71.4425 52.2009L77.0965 49.6376C78.0757 49.1936 78.8288 49.0014 79.3557 49.0608C79.8876 49.1098 80.3622 49.3985 80.7793 49.9268C81.1954 50.4475 81.4634 51.1241 81.5832 51.9565C81.6823 52.6451 81.6691 53.3968 81.5435 54.2114C81.418 55.026 81.2129 55.7438 80.9283 56.3645C80.6498 56.9825 80.3489 57.4898 80.0254 57.8863C79.7019 58.2828 79.3451 58.63 78.955 58.9278C78.1225 59.5712 77.2628 60.094 76.3759 60.4961L72.9853 62.0332L72.8117 69.3064L71.0009 70.1273ZM73.0375 60.0023L76.0216 58.6495C77.1795 58.1246 78.0076 57.5879 78.5061 57.0395C79.0034 56.4835 79.3701 55.8175 79.6062 55.0414C79.8422 54.2653 79.9096 53.5254 79.8083 52.8216C79.7299 52.2768 79.58 51.8732 79.3585 51.6108C79.136 51.3409 78.8562 51.1977 78.5192 51.1812C78.1812 51.1571 77.5656 51.3475 76.6725 51.7524L73.1988 53.3272L73.0375 60.0023ZM82.9667 59.3823L83.0221 57.1686L88.1218 54.8566L88.0756 57.0661L82.9667 59.3823Z" fill="#E6007E"/>
<path fill-rule="evenodd" clip-rule="evenodd" d="M61.9289 59.7913L69.8539 49.5797C70.2128 49.1172 70.933 48.6628 71.7445 48.3868L74.8127 47.3432C75.9138 46.9688 76.9119 47.0115 77.1833 47.4449L80.7934 53.2081L82.8101 45.5024C82.9572 44.9402 83.8353 44.2746 84.9137 43.9078L93.0426 41.1431C94.8588 40.5254 96.2314 40.1847 97.169 40.0617C98.3153 39.906 99.3142 39.9602 100.129 40.2579C100.89 40.5321 101.335 40.9794 101.443 41.609C101.526 42.0939 101.396 42.6608 101.034 43.3141C100.953 43.46 100.865 43.6037 100.769 43.7451L108.029 41.276C108.713 41.0434 109.382 40.965 109.851 41.0623C110.32 41.1594 110.54 41.4223 110.45 41.7779L110.14 43.0035C109.998 43.5665 109.118 44.2357 108.035 44.604L100.69 47.1021C100.004 47.3354 99.3336 47.4135 98.8642 47.3149C98.3949 47.2163 98.1769 46.9513 98.2709 46.5937L98.4212 46.0213C98.1286 46.2306 97.8311 46.4252 97.5305 46.6055C96.8721 47.0003 96.16 47.3701 95.3949 47.713C94.0077 48.3386 92.593 48.8967 91.1509 49.3872L88.1292 50.4149L87.3302 53.4889C87.184 54.0514 86.3055 54.7177 85.2262 55.0848L82.6229 55.9702C82.1089 56.145 81.6034 56.2327 81.1848 56.2242C80.8091 56.5029 80.3276 56.7508 79.8139 56.9255L77.2902 57.7839C76.1919 58.1574 75.1957 58.1158 74.9215 57.685L74.0282 56.2815L69.3699 57.8658L67.2478 60.642C66.8918 61.1077 66.1672 61.5669 65.3494 61.845L62.4937 62.8163C62.4726 62.8234 62.4516 62.8304 62.4306 62.8373C62.4097 62.8447 62.3887 62.852 62.3677 62.8591L59.4588 63.8484C58.6602 64.1201 57.8909 64.1787 57.4314 64.003L52.6023 62.1559L51.2807 63.1786L50.5379 66.0041C50.3901 66.5662 49.5123 67.2313 48.4345 67.5979L45.8311 68.4833C45.1458 68.7164 44.4755 68.7946 44.0061 68.6963C43.5368 68.598 43.3184 68.3335 43.4115 67.9763L46.0048 58.0209C46.1513 57.4585 47.0297 56.7924 48.1087 56.4255L50.712 55.5401C51.3971 55.307 52.0673 55.2288 52.5366 55.327C53.0059 55.4252 53.2245 55.6894 53.1319 56.0464L52.7918 57.3562L57.8869 53.3664C58.2753 53.0623 58.788 52.7934 59.3323 52.6082L62.9982 51.3614C63.9533 51.0366 64.8483 51.0213 65.2396 51.3233C65.6309 51.6252 65.4354 52.1801 64.7501 52.713L57.6983 58.1963L61.9289 59.7913ZM100.532 46.0509L107.877 43.5528L108.187 42.3272L100.855 44.8208L100.532 46.0509ZM62.3358 61.7651L65.1915 60.7938L67.8893 57.2644L75.7658 54.5855L77.1323 56.7326L79.656 55.8743L74.9706 48.3945L71.9024 49.438L62.3358 61.7651ZM68.8536 56.0019L71.6191 52.3752C72.3535 51.4116 72.8999 50.6089 73.2583 49.9671C73.4268 50.5122 73.7304 51.162 74.1692 51.9163L75.2955 53.8109L68.8536 56.0019ZM82.465 54.919L85.0683 54.0336L86.1183 49.9939L90.9929 48.3359C92.268 47.9023 93.5188 47.4088 94.7453 46.8555C95.3197 46.5982 95.8533 46.3219 96.3462 46.0263C96.839 45.7308 97.313 45.3798 97.7681 44.9733C98.232 44.5639 98.5963 44.1202 98.8611 43.6423C99.1258 43.1644 99.2277 42.748 99.1669 42.3932C99.0933 41.9644 98.7969 41.6567 98.2775 41.4702C97.7576 41.2799 97.1313 41.235 96.3988 41.3356C95.6745 41.4292 94.6084 41.7155 93.2005 42.1944L85.0716 44.959L82.465 54.919ZM86.4166 48.865L87.3829 45.157L92.3771 43.4585C93.6611 43.0218 94.5362 42.7695 95.0025 42.7017C95.4682 42.63 95.8404 42.6416 96.1191 42.7366C96.3972 42.8277 96.5603 43.0136 96.6084 43.2943C96.6706 43.6569 96.4948 44.0798 96.081 44.563C95.6673 45.0462 95.0845 45.5002 94.3326 45.9251C93.5802 46.3461 92.3716 46.8397 90.7069 47.4058L86.4166 48.865ZM94.3103 43.9643C94.3001 43.9659 94.2899 43.9674 94.2798 43.9689C93.9701 44.0139 93.3877 44.2197 92.535 44.5097L89.3931 45.5783L89.0587 46.8615L90.5489 46.3547C91.7873 45.9335 92.7005 45.5921 93.2665 45.2773C93.6195 45.0766 93.8947 44.8624 94.0899 44.6344C94.2704 44.4237 94.3598 44.2368 94.3327 44.0786C94.3249 44.0335 94.3473 43.983 94.3103 43.9643ZM94.3097 43.9641C94.3076 43.963 94.3052 43.9621 94.3027 43.9612C94.2981 43.9597 94.2936 43.9582 94.2891 43.9567C94.2962 43.9591 94.2999 43.9642 94.3097 43.9641ZM45.6732 67.4321L48.2766 66.5467L49.1272 63.3113L52.9369 60.3631L59.3009 62.7972L62.2098 61.8079L54.7099 58.9802L63.1562 52.4126L59.4902 53.6594L49.6259 61.384L50.8699 56.5913L48.2666 57.4767L45.6732 67.4321Z" fill="#E6007E"/>
<path d="M128.961 33.9169L22.9409 68.3637L23.7788 89.6823L125.696 56.6509L128.961 33.9169Z" fill="#E6007E"/>
<path d="M142.107 57.5843C141.967 58.0892 142.561 58.9107 143.435 59.4193C144.308 59.9279 145.13 59.9308 145.27 59.4259C145.41 58.921 144.815 58.0995 143.942 57.5909C143.068 57.0823 142.246 57.0794 142.107 57.5843Z" fill="#7BFF00"/>
<path d="M134.847 57.6354C134.736 58.0395 135.377 58.8611 136.279 59.4704C137.181 60.0797 138.002 60.246 138.114 59.8419C138.225 59.4377 137.584 58.6162 136.683 58.0069C135.781 57.3975 134.959 57.2312 134.847 57.6354Z" fill="#7BFF00"/>
<path d="M139.43 55.3501C139.374 55.5523 139.694 55.9632 140.145 56.2677C140.596 56.5723 141.006 56.6553 141.062 56.4531C141.118 56.2508 140.798 55.84 140.347 55.5354C139.896 55.2309 139.485 55.1479 139.43 55.3501Z" fill="#7BFF00"/>
<path d="M109.397 29.2573C110.254 29.8079 111.103 29.851 111.295 29.3534C111.487 28.8559 110.949 28.0062 110.093 27.4555C109.237 26.9049 108.387 26.8618 108.195 27.3594C108.003 27.8569 108.541 28.7066 109.397 29.2573Z" fill="#7BFF00"/>
<path d="M109.172 36.329C110.052 36.9538 110.902 37.1172 111.07 36.6938C111.237 36.2704 110.66 35.4207 109.779 34.7959C108.899 34.1711 108.049 34.0078 107.881 34.4311C107.714 34.8545 108.291 35.7042 109.172 36.329Z" fill="#7BFF00"/>
<path d="M106.755 31.9929C107.194 32.3051 107.619 32.3866 107.703 32.1748C107.787 31.963 107.498 31.5381 107.058 31.2258C106.618 30.9136 106.194 30.8321 106.11 31.0439C106.026 31.2557 106.315 31.6806 106.755 31.9929Z" fill="#7BFF00"/>
<path d="M126.765 32.4988L126.621 31.6719C127.474 31.5233 128.256 32.1777 128.261 33.0441L128.351 51.1078C128.355 51.791 127.864 52.3768 127.191 52.494L122.786 53.2611C122.145 53.3727 121.512 53.0286 121.258 52.4305L118.862 46.8057L118.889 52.756C118.892 53.4389 118.402 54.0244 117.73 54.1416L114.328 54.734C113.613 54.8584 112.948 54.4197 112.748 53.7651L112.749 53.8229C112.753 54.5067 112.263 55.0935 111.589 55.2109L100.75 57.0983C99.8961 57.247 99.1139 56.5925 99.1095 55.7262L99.0192 37.6624C99.0158 36.9793 99.5059 36.3934 100.179 36.2762L103.58 35.6839C104.434 35.5353 105.217 36.1901 105.22 37.0567L105.279 49.8826L111.086 48.8715C111.806 48.7461 112.476 49.1923 112.67 49.8553L112.597 35.2981C112.594 34.6149 113.084 34.0291 113.757 33.9119L118.164 33.1444C118.803 33.0332 119.434 33.3746 119.69 33.9697M126.765 32.4988L119.69 33.9697M126.765 32.4988L126.621 31.6719L123.219 32.2642C122.546 32.3814 122.056 32.9679 122.06 33.6514L122.093 39.5484L119.69 33.9697M126.765 32.4988L118.919 34.302L119.69 33.9697M32.6232 48.5174L33.3377 48.959L32.6232 48.5174L29.5215 53.5355L29.5037 50.2402C29.4991 49.3741 28.7169 48.72 27.8637 48.8686L24.4091 49.4702C23.7361 49.5874 23.2459 50.1732 23.2493 50.8563L23.3397 68.9201C23.344 69.7864 24.1262 70.4409 24.9798 70.2923L28.4341 69.6908C29.1071 69.5736 29.5972 68.9877 29.5938 68.3045L29.5769 64.959L30.1499 64.0302L33.0177 68.0815C33.3299 68.5225 33.8681 68.7445 34.4005 68.6518L38.8842 67.871C39.3938 67.7823 39.7695 67.4416 39.9414 67.018C40.2504 67.3624 40.7254 67.5504 41.2248 67.4635L44.6263 66.8712C45.2988 66.7541 45.7888 66.1691 45.7861 65.4865L45.775 62.6357L47.9336 62.2599L47.9428 64.6343C47.9462 65.5013 48.7288 66.1568 49.5829 66.0081L52.9844 65.4158C53.6569 65.2987 54.1469 64.7137 54.1442 64.0311L54.097 51.9395L54.0969 51.9377C54.0866 50.2334 53.9663 48.206 52.912 46.7603C51.7691 45.193 49.7587 44.5619 46.6461 45.1039C43.5076 45.6504 41.6509 46.9602 40.631 48.7293C39.6437 50.4418 39.5277 52.4479 39.5382 54.1898C39.5382 54.19 39.5382 54.1902 39.5382 54.1905L39.582 65.3927L34.0834 57.5937L39.212 49.2545C39.8438 48.2272 38.9675 46.9351 37.7794 47.142L33.5739 47.8743C33.1797 47.9429 32.8336 48.177 32.6232 48.5174ZM29.9054 63.6847L29.9057 63.685L29.9054 63.6847ZM45.7389 53.3984L45.7389 53.3984L45.7388 53.3867C45.7295 52.7115 45.7904 52.4707 45.8788 52.3426C45.9417 52.2514 46.1358 52.0589 46.9347 51.9197C47.3287 51.8511 47.5685 51.8483 47.7076 51.8677C47.7557 51.8744 47.784 51.8826 47.799 51.8882C47.8085 51.907 47.827 51.9519 47.8449 52.0417C47.8765 52.1994 47.8918 52.4184 47.8963 52.7358L47.8956 55.8121L45.7383 56.1878L45.7389 53.3984ZM47.813 51.8949C47.8129 51.895 47.811 51.8942 47.808 51.892C47.8117 51.8937 47.8132 51.8948 47.813 51.8949ZM75.673 55.4256L75.6249 55.1497L75.673 55.4256L75.6735 55.4255C75.6733 55.4255 75.6731 55.4255 75.673 55.4256ZM75.9228 60.2393L75.9057 55.385L77.2575 55.1496C79.7074 54.723 81.563 53.854 82.7878 52.3768C83.76 51.2042 84.2656 49.7315 84.4278 47.9939L84.4792 58.2738C84.4835 59.1401 85.2658 59.7946 86.1193 59.6459L97.6157 57.644C98.2893 57.5267 98.7797 56.9399 98.7754 56.2561L98.7531 52.6751C98.7477 51.8095 97.9658 51.1562 97.113 51.3047L90.8151 52.4013L90.8181 51.5804L95.3089 50.7985C95.9825 50.6811 96.4729 50.0943 96.4686 49.4105L96.4463 45.8295C96.4408 44.9639 95.659 44.3106 94.8062 44.4591L90.7845 45.1594L90.779 44.34L97.5491 43.1611C98.2228 43.0438 98.7131 42.457 98.7088 41.7732L98.6865 38.1921C98.6811 37.3265 97.8992 36.6732 97.0464 36.8217L85.5486 38.8238C84.8756 38.941 84.3854 39.5269 84.3888 40.21L84.4137 45.1907C84.2332 43.5105 83.7016 42.1452 82.6322 41.2426C81.2775 40.0993 79.3112 39.91 76.8944 40.3308L70.7899 41.3938C70.1169 41.511 69.6267 42.0968 69.6301 42.78L69.6551 47.7607C69.4746 46.0805 68.9429 44.7152 67.8735 43.8126C66.5188 42.6692 64.5525 42.4799 62.1357 42.9008L56.0312 43.9638C55.3582 44.081 54.868 44.6668 54.8714 45.3499L54.9618 63.4137C54.9661 64.28 55.7484 64.9345 56.6019 64.7858L60.0043 64.1934C60.6765 64.0763 61.1665 63.4916 61.1641 62.8093L61.147 57.955L62.4988 57.7196C64.9487 57.293 66.8043 56.424 68.0291 54.9468C69.0013 53.7741 69.507 52.3014 69.6691 50.5638L69.7205 60.8437C69.7248 61.7101 70.5071 62.3645 71.3606 62.2159L74.763 61.6234C75.4352 61.5064 75.9252 60.9217 75.9228 60.2393ZM62.3389 51.3206L61.1109 51.5344L61.1022 49.5076L62.6111 49.2449C62.9204 49.191 63.1346 49.1649 63.2926 49.1654C63.3616 49.1657 63.404 49.1712 63.4275 49.1758C63.4331 49.1877 63.4402 49.2049 63.4482 49.2291C63.488 49.3492 63.5261 49.5709 63.5274 49.956C63.53 50.7358 63.3797 50.9402 63.3117 51.007C63.2079 51.109 62.9926 51.2067 62.3389 51.3206ZM63.4148 49.1532C63.4149 49.1531 63.4158 49.1541 63.4173 49.1565C63.4155 49.1544 63.4147 49.1532 63.4148 49.1532ZM77.0976 48.7506L75.8695 48.9644L75.8609 46.9377L77.3698 46.6749C77.6791 46.6211 77.8933 46.5949 78.0513 46.5955C78.1203 46.5957 78.1627 46.6012 78.1862 46.6058C78.1918 46.6177 78.1989 46.6349 78.2069 46.6591C78.2467 46.7793 78.2848 47.001 78.2861 47.3861C78.2887 48.1659 78.1384 48.3702 78.0704 48.437C77.9665 48.5391 77.7513 48.6368 77.0976 48.7506ZM78.1735 46.5832C78.1736 46.5831 78.1744 46.5841 78.176 46.5865C78.1742 46.5845 78.1735 46.5833 78.1735 46.5832Z" fill="#E6007E" stroke="#E6007E" stroke-width="1.67991"/>
<path d="M33.0781 57.6253L39.6115 66.8919L33.908 67.885L30.102 62.5083L28.736 64.7227L28.7565 68.7821L24.1832 69.5784L24.0872 50.3789L28.6605 49.5825L28.6976 56.4664L33.4703 48.745L39.1475 47.7564L33.0781 57.6253Z" fill="#FFFF00"/>
<path d="M53.3063 64.5071L48.7856 65.2943L48.7699 61.2617L44.9325 61.9299L44.9482 65.9626L40.4275 66.7498L40.3784 54.1854C40.3575 50.7301 40.8767 46.9611 46.7904 45.9314C52.7042 44.9016 53.2363 48.4875 53.2572 51.9428L53.3063 64.5071ZM48.7365 52.73C48.7185 51.4154 48.5255 50.7902 46.7908 51.0922C45.0561 51.3943 44.8811 52.0836 44.8991 53.3982L44.8983 57.1867L48.7357 56.5185L48.7365 52.73Z" fill="#FFFF00"/>
<path d="M55.7093 44.8725L62.2801 43.7283C66.9585 42.9136 68.8707 44.667 68.8884 49.166C68.906 53.665 67.0334 56.0774 62.355 56.8921L60.3049 57.2491L60.326 63.2848L55.8053 64.072L55.7093 44.8725ZM60.2754 52.5325L62.4832 52.1481C63.7448 51.9284 64.3733 51.6542 64.3676 49.9532C64.3619 48.2522 63.7288 48.1977 62.4672 48.4174L60.2594 48.8018L60.2754 52.5325Z" fill="#FFFF00"/>
<path d="M70.468 42.3025L77.0388 41.1583C81.7172 40.3436 83.6294 42.097 83.6471 46.596C83.6647 51.0951 81.7921 53.5075 77.1137 54.3221L75.0636 54.6791L75.0847 60.7148L70.564 61.502L70.468 42.3025ZM75.0341 49.9625L77.2419 49.5781C78.5035 49.3584 79.132 49.0843 79.1263 47.3832C79.1206 45.6822 78.4875 45.6277 77.2259 45.8474L75.0182 46.2319L75.0341 49.9625Z" fill="#FFFF00"/>
<path d="M97.8427 37.5357L97.8721 42.2523L89.9345 43.6345L89.9515 46.1571L95.6024 45.1731L95.6319 49.8897L89.981 50.8737L89.9717 53.4008L97.9092 52.0187L97.9387 56.7352L85.3227 58.9321L85.2267 39.7325L97.8427 37.5357Z" fill="#FFFF00"/>
<path d="M104.378 36.3977L104.444 50.8807L111.883 49.5855L111.912 54.3021L99.953 56.3845L99.857 37.1849L104.378 36.3977Z" fill="#FFFF00"/>
<path d="M118.744 33.8961L122.957 43.6765L122.897 33.1729L127.418 32.3857L127.514 51.5853L122.205 52.5098L118.003 42.6449L118.052 53.2329L113.531 54.0201L113.435 34.8206L118.744 33.8961Z" fill="#FFFF00"/>
<path d="M83.6105 75.506C83.6104 75.4701 83.6099 75.4344 83.6091 75.3988C83.7206 76.3108 83.9982 77.4223 84.6745 78.3841C85.2123 79.1489 85.9926 79.8052 87.0927 80.1842C88.1817 80.5594 89.5348 80.6464 91.2055 80.3647C94.5855 79.7949 96.471 78.1851 97.4759 76.3929C98.4553 74.6461 98.5424 72.8248 98.5432 71.895L98.5432 71.8891L98.4691 59.8093C98.4638 58.9467 97.6871 58.2941 96.8364 58.4375L93.389 59.0187C92.7123 59.1328 92.2181 59.7206 92.2219 60.4069L92.2817 71.2432C92.2817 71.2439 92.2817 71.2447 92.2817 71.2454C92.2807 72.3164 92.2377 72.9655 92.0473 73.3941C91.9658 73.5773 91.861 73.7066 91.7123 73.8096C91.5541 73.9191 91.3046 74.0272 90.8965 74.096C90.4786 74.1664 90.2597 74.134 90.1557 74.0975C90.0833 74.0721 90.0367 74.0373 89.9849 73.9405C89.9178 73.8153 89.8542 73.6006 89.8148 73.2425C89.7761 72.8908 89.7669 72.466 89.7674 71.9518L89.7673 71.9464L89.7085 61.2872C89.7037 60.4242 88.9268 59.771 88.0758 59.9145L84.6291 60.4955C83.9521 60.6097 83.4578 61.198 83.462 61.8846L83.5372 74.1402C83.5372 74.1412 83.5372 74.1422 83.5372 74.1432C83.5371 74.3006 83.5398 74.4854 83.5496 74.6913C83.3838 73.5775 82.8852 72.6286 82.1202 72.0263C82.1202 72.0263 82.1197 72.0259 82.1189 72.0251L82.1155 72.0216C82.1125 72.0184 82.109 72.014 82.1054 72.0084C82.1018 72.003 82.0988 71.9974 82.0963 71.9922C82.8554 70.5927 83.0585 69.0553 83.0547 68.1937M83.6105 75.506C83.6105 75.5072 83.6105 75.5083 83.6105 75.5095L82.7706 75.5124L83.6105 75.5028C83.6105 75.5039 83.6105 75.5049 83.6105 75.506ZM83.6105 75.506C83.6305 77.2903 83.2462 78.8435 82.0421 80.0473C80.8716 81.2176 79.0476 81.9313 76.4939 82.3618L69.7903 83.492C68.9391 83.6355 68.1621 82.982 68.1576 82.1188L68.0665 64.4788C68.063 63.7927 68.5571 63.2052 69.2337 63.0911L75.1354 62.0961C77.6928 61.665 79.7314 61.8344 81.1294 62.9356C82.5455 64.051 83.0455 65.9127 83.0547 68.1937M83.0547 68.1937L82.2148 68.1971L83.0547 68.1934C83.0547 68.1935 83.0547 68.1936 83.0547 68.1937ZM47.6792 81.3469C47.6663 79.5848 47.0364 78.3003 46.0533 77.3783C45.1016 76.486 43.8733 75.9844 42.74 75.6452C42.1677 75.4739 41.5978 75.338 41.0789 75.2174C41.0148 75.2025 40.9518 75.1879 40.8897 75.1736C40.4387 75.0691 40.0394 74.9766 39.6873 74.8764C39.2797 74.7603 39.0075 74.6529 38.8405 74.5499C38.7938 74.5211 38.7644 74.4985 38.7465 74.4826C38.7584 74.4524 38.7871 74.3997 38.8574 74.3284C38.9949 74.1889 39.2457 74.0383 39.6074 73.9773C40.0921 73.8956 40.397 73.9191 40.5821 73.9886C40.718 74.0395 40.8525 74.1354 40.9617 74.4298C41.2029 75.08 41.9876 75.703 42.8821 75.3545L46.3516 74.0028C46.8382 73.8133 47.2093 73.3493 47.2317 72.7864C47.5046 72.9484 47.835 73.0197 48.1774 72.9619L51.8629 72.3406L51.9223 84.8554C51.9264 85.7188 52.7036 86.3727 53.555 86.2292L57.0018 85.6481C57.6782 85.534 58.1723 84.9468 58.169 84.261L58.1074 71.2878L62.243 70.5906C62.9202 70.4764 63.4146 69.8879 63.4101 69.2011L63.3877 65.7234C63.3821 64.8609 62.6056 64.2086 61.7551 64.352L47.6895 66.7233C47.0123 66.8375 46.5179 67.4261 46.5224 68.1128L46.5357 70.1865C46.2528 69.6712 45.8699 69.1851 45.3608 68.7697C44.0533 67.7028 42.0823 67.2392 39.2984 67.7085C36.0777 68.2515 34.2675 69.8579 33.2924 71.4984C32.355 73.0755 32.218 74.6319 32.2392 75.185C32.2476 76.9288 32.8395 78.1911 33.7933 79.0863C34.7166 79.9528 35.9106 80.4096 37.0048 80.7092C37.5575 80.8605 38.1096 80.9779 38.6107 81.0831L38.6876 81.0992C39.1674 81.1998 39.5887 81.2882 39.9569 81.3889C40.3507 81.4967 40.6156 81.6015 40.7816 81.7057C40.8594 81.7546 40.897 81.7921 40.9136 81.8126C40.9156 81.815 40.9173 81.8173 40.9188 81.8193C40.9078 81.8562 40.8655 81.9682 40.6792 82.1393C40.4237 82.3739 40.0121 82.5942 39.5145 82.6781C39.0072 82.7636 38.7092 82.7364 38.5369 82.6621C38.4248 82.6138 38.2634 82.5052 38.1475 82.0759C37.95 81.3445 37.1268 80.688 36.2105 81.045L32.7711 82.3849C32.2452 82.5898 31.8563 83.1134 31.8917 83.7358C31.965 85.0259 32.397 86.6123 33.666 87.7456C34.9586 88.8999 36.9461 89.432 39.797 88.9514C43.171 88.3825 45.1659 86.7619 46.3024 85.1211C47.4086 83.5239 47.6863 81.9293 47.6792 81.3469ZM47.6792 81.3469C47.6792 81.3478 47.6792 81.3487 47.6792 81.3496L46.8393 81.3555L47.6792 81.3436C47.6792 81.3447 47.6792 81.3458 47.6792 81.3469ZM31.6901 71.0692C31.6857 70.206 30.9087 69.5525 30.0575 69.696L26.6637 70.2682C25.9871 70.3822 25.493 70.9698 25.4965 71.6559L25.5876 89.2958C25.5921 90.159 26.3691 90.8126 27.2203 90.669L30.6141 90.0969C31.2906 89.9828 31.7848 89.3953 31.7813 88.7092L31.6901 71.0692ZM52.1879 72.2858C52.1877 72.2858 52.1876 72.2859 52.1875 72.2859L52.1879 72.2858ZM38.7215 74.4556C38.7218 74.4555 38.7234 74.4575 38.7256 74.4616C38.7224 74.4576 38.7213 74.4556 38.7215 74.4556ZM75.606 70.2849L74.3513 70.4964L74.3427 68.5506L75.8691 68.2933C76.1817 68.2406 76.4006 68.2146 76.5634 68.2151C76.6421 68.2153 76.6888 68.222 76.7133 68.2272C76.7181 68.2376 76.7242 68.2522 76.7311 68.2724C76.7693 68.3841 76.8076 68.5956 76.8089 68.9698C76.8115 69.725 76.662 69.914 76.5983 69.9746C76.4914 70.0764 76.2682 70.1732 75.606 70.2849ZM76.7016 68.2062C76.7017 68.2061 76.7024 68.207 76.7037 68.2092C76.7022 68.2073 76.7015 68.2063 76.7016 68.2062ZM75.8511 76.9547L74.3602 77.206L74.3583 76.0644L76.1787 75.7575C76.4858 75.7058 76.707 75.6805 76.8708 75.6792C76.9358 75.6787 76.9812 75.6822 77.0114 75.6861C77.0286 75.7491 77.0491 75.8687 77.0513 76.0755C77.0562 76.5417 76.9498 76.622 76.9142 76.6488C76.9131 76.6497 76.912 76.6505 76.9109 76.6513C76.7843 76.7489 76.5163 76.8425 75.8511 76.9547ZM106.422 57.8876C106.163 57.3038 105.541 56.97 104.911 57.0762L100.446 57.8289C99.7694 57.943 99.2752 58.5305 99.2788 59.2166L99.3699 76.8566C99.3744 77.7198 100.151 78.3733 101.003 78.2298L104.45 77.6486C105.126 77.5346 105.62 76.9474 105.617 76.2616L105.589 70.4267L108.029 75.9731C108.287 76.56 108.911 76.8965 109.543 76.7899L114.006 76.0375C114.683 75.9234 115.177 75.3359 115.173 74.6498L115.1 60.5276C115.327 61.1357 115.962 61.5338 116.645 61.4187L120.331 60.7973L120.39 73.3121C120.394 74.1755 121.171 74.8295 122.023 74.6859L125.47 74.1048C126.146 73.9908 126.64 73.4036 126.637 72.7177L126.575 59.7445L130.711 59.0473C131.388 58.9331 131.882 58.3446 131.878 57.6578L131.856 54.1801C131.85 53.3177 131.073 52.6653 130.223 52.8087L116.157 55.1801C115.497 55.2914 115.011 55.8536 114.991 56.5181C114.761 55.9155 114.129 55.5221 113.449 55.6366L110.003 56.2177C109.326 56.3318 108.832 56.92 108.836 57.6065L108.87 63.3886L106.422 57.8876ZM126.341 59.7841L126.341 59.784L126.341 59.7841Z" fill="#FFFF00" stroke="#E6007E" stroke-width="1.67991"/>
<path d="M30.8468 70.4147L30.9438 89.1895L26.431 89.9503L26.334 71.1756L30.8468 70.4147Z" fill="#FFFF00"/>
<path d="M46.4074 73.0797L41.913 74.8306C41.6997 73.2291 40.7685 72.9297 39.4678 73.149C38.4325 73.3236 37.7997 74.0477 37.9102 74.6465C38.2848 76.6772 46.7964 75.1885 46.8393 81.3555C46.8507 82.1589 45.9488 87.0624 39.6574 88.1231C33.9765 89.0808 32.7176 85.6691 32.7196 83.3064L37.214 81.5555C37.374 83.4613 38.3534 83.7257 39.6542 83.5064C40.9549 83.2871 41.904 82.3486 41.7478 81.6501C41.2334 79.4551 33.0954 81.3371 33.079 75.1657C33.0411 74.3667 33.4917 69.5393 39.438 68.5368C45.0127 67.5969 46.3829 70.7215 46.4074 73.0797Z" fill="#FFFF00"/>
<path d="M52.6982 71.348L47.389 72.2431L47.3592 67.6308L62.5435 65.0709L62.5733 69.6831L57.2641 70.5782L57.3313 84.7407L52.7654 85.5105L52.6982 71.348Z" fill="#FFFF00"/>
<path d="M68.904 63.9985L75.275 62.9244C80.2657 62.083 82.1969 63.7976 82.2148 68.1971C82.2188 69.1091 81.9518 70.9258 80.8937 72.3122C81.9672 72.6413 82.7648 73.849 82.7706 75.5124C82.8087 78.8347 81.3449 80.6922 76.3542 81.5336L69.001 82.7733L68.904 63.9985ZM73.5158 71.4891L75.7456 71.1131C77.0198 70.8983 77.6547 70.6302 77.6489 68.9669C77.6431 67.3035 77.0037 67.2502 75.7295 67.465L73.4996 67.841L73.5158 71.4891ZM73.522 78.1991L75.9907 77.7829C77.2649 77.5681 77.9046 77.326 77.8912 76.0666C77.8778 74.8072 77.3133 74.7144 76.0391 74.9293L73.5172 75.3544L73.522 78.1991Z" fill="#FFFF00"/>
<path d="M84.299 61.403L88.8649 60.6332L88.9274 71.951C88.9256 74.0184 89.0717 75.2554 91.0361 74.9242C93.0005 74.5931 93.1199 73.3112 93.1217 71.2439L93.0592 59.9261L97.6251 59.1563L97.7032 71.8942C97.7017 73.6662 97.3572 78.4758 91.0658 79.5365C84.7744 80.5972 84.3756 75.9129 84.3771 74.1409L84.299 61.403Z" fill="#FFFF00"/>
<path d="M105.479 57.8323L109.734 67.3963L109.673 57.1251L114.239 56.3554L114.336 75.1301L108.973 76.0342L104.73 66.3876L104.779 76.7413L100.213 77.5111L100.116 58.7363L105.479 57.8323Z" fill="#FFFF00"/>
<path d="M121.166 59.8047L115.857 60.6998L115.827 56.0876L131.011 53.5276L131.041 58.1398L125.732 59.0349L125.799 73.1974L121.233 73.9672L121.166 59.8047Z" fill="#FFFF00"/>
</svg>
