<svg width="937" height="907" viewBox="0 0 937 907" fill="none" xmlns="http://www.w3.org/2000/svg">
<g filter="url(#filter0_d_27_917)">
<path d="M274.303 313.654C269.425 312.259 265.832 312.072 264.231 310.64C256.691 303.891 249 297.307 244.772 288.583C237.183 272.933 227.958 257.954 222.442 241.463C215.848 221.751 210.607 201.68 212.504 179.755C213.109 172.706 214.423 165.393 217.19 158.197C222.043 145.599 240.548 135.392 257.807 134.981C262.967 134.858 267.463 135.77 270.181 138.38C273.937 141.993 278.604 145.396 280.334 149.818C284.289 159.929 288.056 170.087 287.482 181.72C286.391 203.719 286.598 225.494 286.469 247.326C286.376 261.778 283.847 276.492 279.659 291.431C278.419 295.837 278 300.198 277.04 304.593C276.531 306.893 275.655 309.226 274.303 313.654Z" fill="#FF6900"/>
<path d="M258.523 309.561C249.178 313.136 245.201 311.622 241.33 310.288C235.15 308.148 229.345 305.653 224.011 302.787C204.897 292.521 181.136 286.432 158.431 279.34C138.044 272.977 120.208 264.218 103.274 254.857C96.6866 251.22 94.7716 243.578 92.3512 236.768C89.7827 229.558 89.2335 221.115 87.6331 213.307C86.3283 206.921 89.6655 198.605 94.3168 189.861C101.037 177.225 115.764 166.303 132.078 161.898C145.53 158.266 157.016 157.091 165.272 160.059C179.743 165.252 192.918 171.496 203.554 179.85C205.475 181.363 207.167 183.072 208.547 184.978C218.887 199.317 229.504 213.469 239.17 228.264C242.359 233.161 243.887 239.282 244.671 245.677C246.786 262.905 252.281 277.974 261.955 290.501C265.06 294.521 268.307 298.738 258.523 309.561Z" fill="#7BFF00"/>
<path d="M272.442 316.629C252.65 321.099 234.699 325.119 216.67 329.251C209.567 330.879 202.484 332.434 195.095 334.564C171.561 341.341 147.884 348.37 124.258 355.308C122.231 355.905 120.024 356.763 118.169 357.127C91.8295 362.288 64.5296 368.546 43.1976 367.695C25.1265 366.972 19.1848 358.176 18.7741 346.206C18.5021 338.286 38.3492 322.559 54.1574 318.031C68.2224 314.005 81.8274 310.927 95.1789 308.08C104.062 306.188 112.488 305.055 120.539 304.233C162.055 299.99 203.723 295.568 240.044 296.863C254.92 297.394 264.089 302.263 273.668 306.825C276.553 308.206 277.483 311.008 272.442 316.629Z" fill="#FF6900"/>
<path d="M257.724 354.983C252.777 358.235 250.432 360.246 248.199 361.163C237.908 365.391 227.652 368.91 217.361 373.454C204.337 379.202 191.292 385.681 178.253 391.874C176.08 392.905 173.918 394.131 171.747 395.213C141.876 410.102 112.002 424.94 82.1413 439.892C76.7393 442.598 71.2909 445.544 66.0437 448.745C58.1185 453.578 50.8717 455.706 43.8232 456.938C35.8451 458.331 32.6269 456.118 33.2162 450.294C34.1094 441.465 45.6855 426.726 59.0259 418.139C79.1385 405.192 99.8984 394.714 120.416 388.002C144.922 379.986 169.978 370.344 193.651 365.055C195.674 364.604 197.852 363.932 200.001 363.106C221.527 354.822 238.489 354.318 257.724 354.983Z" fill="#32B9CC"/>
<path d="M396.556 170.802C393.04 167.413 387.61 167.348 384.426 170.658C381.243 173.968 381.512 179.398 385.028 182.787C388.543 186.177 393.974 186.241 397.157 182.931C400.34 179.622 400.071 174.191 396.556 170.802Z" fill="#32B9CC"/>
<path d="M346.161 160.124C342.645 156.735 337.215 156.67 334.032 159.979C330.849 163.289 331.118 168.719 334.634 172.109C338.15 175.498 343.58 175.563 346.763 172.254C349.946 168.944 349.677 163.514 346.161 160.124Z" fill="#32B9CC"/>
<path d="M416.203 162.368C414.445 160.673 411.73 160.641 410.138 162.296C408.547 163.95 408.682 166.666 410.439 168.36C412.197 170.055 414.913 170.088 416.504 168.433C418.096 166.778 417.961 164.063 416.203 162.368Z" fill="#32B9CC"/>
<path d="M101.221 440.738C104.785 446.271 111.515 448.655 116.254 446.062C120.993 443.469 121.947 436.881 118.384 431.347C114.821 425.814 108.09 423.431 103.351 426.024C98.612 428.617 97.6584 435.205 101.221 440.738Z" fill="#FF6900"/>
<path d="M74.6572 476.459C78.2142 481.977 84.944 484.338 89.6886 481.734C94.4332 479.129 95.396 472.545 91.8391 467.028C88.2821 461.51 81.5524 459.149 76.8078 461.753C72.0631 464.358 71.1003 470.942 74.6572 476.459Z" fill="#FF6900"/>
<path d="M76.0369 437.444C77.8149 440.203 81.1789 441.383 83.5507 440.081C85.9224 438.779 86.4037 435.488 84.6257 432.73C82.8476 429.972 79.4836 428.791 77.1119 430.093C74.7401 431.395 74.2588 434.686 76.0369 437.444Z" fill="#FF6900"/>
<path d="M157.138 161.954C161.137 164.757 166.485 163.955 169.082 160.162C171.68 156.368 170.545 151.021 166.546 148.217C162.547 145.414 157.199 146.216 154.601 150.009C152.003 153.803 153.139 159.15 157.138 161.954Z" fill="#FFFF00"/>
<path d="M145.477 202.271C149.507 205.17 154.855 204.522 157.421 200.824C159.988 197.126 158.801 191.778 154.77 188.879C150.74 185.98 145.392 186.629 142.826 190.327C140.259 194.025 141.446 199.372 145.477 202.271Z" fill="#FFFF00"/>
<path d="M138.826 172.866C140.841 174.315 143.515 173.991 144.798 172.142C146.081 170.293 145.487 167.619 143.472 166.17C141.457 164.721 138.783 165.045 137.5 166.894C136.217 168.743 136.81 171.417 138.826 172.866Z" fill="#FFFF00"/>
<path d="M135.123 588.921C137.322 585.199 135.617 579.928 131.314 577.149C127.012 574.37 121.741 575.134 119.542 578.857C117.343 582.579 119.048 587.85 123.35 590.629C127.653 593.408 132.923 592.643 135.123 588.921Z" fill="#FFFF00"/>
<path d="M176.435 598.111C178.575 594.566 176.775 589.295 172.413 586.338C168.052 583.382 162.782 583.859 160.641 587.404C158.501 590.949 160.301 596.22 164.663 599.176C169.024 602.133 174.295 601.656 176.435 598.111Z" fill="#FFFF00"/>
<path d="M147.122 606.201C148.192 604.429 147.292 601.793 145.111 600.315C142.931 598.837 140.295 599.076 139.225 600.848C138.155 602.621 139.055 605.256 141.236 606.734C143.417 608.212 146.052 607.974 147.122 606.201Z" fill="#FFFF00"/>
<path d="M777.887 206.497C776.944 210.511 780.217 215.313 785.198 217.223C790.179 219.132 794.981 217.426 795.924 213.412C796.867 209.397 793.593 204.595 788.612 202.686C783.631 200.776 778.829 202.483 777.887 206.497Z" fill="#FFF155"/>
<path d="M735.344 206.257C734.63 209.385 738.273 214.187 743.482 216.983C748.692 219.778 753.494 219.508 754.208 216.38C754.923 213.252 751.279 208.45 746.07 205.654C740.86 202.859 736.058 203.129 735.344 206.257Z" fill="#FFF155"/>
<path d="M762.067 192.2C761.71 193.764 763.532 196.165 766.137 197.563C768.741 198.961 771.142 198.826 771.499 197.262C771.857 195.697 770.035 193.296 767.43 191.899C764.826 190.501 762.425 190.636 762.067 192.2Z" fill="#FFF155"/>
<path d="M702.215 250.871C709.288 255.86 712.75 256.013 716.102 256.255C721.451 256.631 726.544 256.671 731.32 256.339C748.402 255.137 768.65 257.976 788.187 259.859C805.733 261.558 821.551 260.97 836.736 259.738C842.639 259.26 845.34 254.854 848.327 251.128C851.491 247.183 853.199 241.864 855.667 237.26C857.685 233.491 856.21 227.147 853.73 220.146C850.145 210.034 839.791 198.746 827.172 191.23C816.77 185.037 807.595 180.99 800.433 180.556C787.883 179.795 776.227 180.079 766.322 182.459C764.532 182.891 762.9 183.516 761.493 184.358C750.939 190.704 740.182 196.848 730.109 203.684C726.782 205.947 724.625 209.48 723.031 213.403C718.738 223.972 712.017 232.176 702.269 237.53C699.144 239.254 695.87 241.059 702.215 250.871Z" fill="#7BFF00"/>
<path d="M655.473 270.373C675.287 280.27 693.267 289.217 711.303 298.278C718.407 301.848 725.506 305.353 732.8 309.411C756.028 322.338 779.352 335.51 802.639 348.589C804.642 349.716 806.767 351.102 808.637 351.989C835.185 364.532 862.496 378.256 885.134 384.424C904.313 389.651 912.559 384.585 915.704 375.229C917.787 369.04 900.462 350.2 884.853 341.539C870.964 333.832 857.343 327.024 843.941 320.484C835.02 316.133 826.413 312.532 818.123 309.294C775.4 292.606 732.554 275.729 694.04 265.101C678.267 260.747 667.519 261.667 656.402 262.207C653.053 262.375 651.44 264.299 655.473 270.373Z" fill="#FF6900"/>
<path d="M653.785 315.264C657.716 319.906 659.177 322.737 661.423 324.089C671.791 330.335 682.717 335.623 692.81 342.29C705.586 350.723 717.762 360.145 730.173 369.179C732.241 370.682 734.126 372.45 736.148 374.022C763.981 395.662 791.86 417.234 819.624 438.96C824.645 442.891 829.522 447.145 833.904 451.735C840.53 458.666 848.56 461.919 857.097 463.959C866.755 466.264 873.047 463.46 877.265 455.599C883.662 443.676 880.61 423.227 869.854 410.957C853.636 392.458 834.406 377.245 812.257 367.105C785.808 354.998 760.005 340.676 732.335 332.278C729.971 331.565 727.584 330.542 725.371 329.314C703.202 317.008 680.546 315.412 653.785 315.264Z" fill="#32B9CC"/>
<path d="M684.709 301.787C683.248 298.125 681.839 296.519 682.024 294.716C682.865 286.404 684.757 277.935 685.115 269.709C685.573 259.301 684.928 249.072 684.714 238.772C684.678 237.057 684.338 235.404 684.224 233.702C682.668 210.297 681.187 186.874 679.526 163.494C679.223 159.265 678.588 155.06 677.42 151.11C675.66 145.14 677.547 139.057 680.663 132.906C684.19 125.95 689.851 122.383 698.321 121.331C711.167 119.735 725.465 126.351 729.12 136.271C734.631 151.232 735.912 167.462 731.618 184.5C726.486 204.85 723.446 225.263 714.743 245.595C713.995 247.332 713.478 249.154 713.219 250.904C710.604 268.441 699.354 283.909 684.709 301.787Z" fill="#32B9CC"/>
<path d="M283.508 498.064L286.203 393.081L296.786 388.252L295.508 438.801L331.828 372.262L346.731 365.462L315.592 421.922L350.731 467.39L338.906 472.785L309.059 433.821L295.001 459.132L294.091 493.235L283.508 498.064ZM350.137 467.661L381.179 349.743L393.652 344.051L420.545 435.532L410.287 440.214L402.473 413.913L370.454 428.523L361.746 462.363L350.137 467.661ZM373.565 416.417L399.753 404.467L393.204 381.411C390.639 372.249 388.754 364.498 387.547 358.16C386.54 364.565 384.852 372.389 382.485 381.632L373.565 416.417ZM430.858 430.826L433.607 325.819L466.652 310.74C472.375 308.129 476.775 306.994 479.851 307.336C482.957 307.617 485.726 309.302 488.157 312.392C490.583 315.438 492.141 319.397 492.833 324.272C493.405 328.304 493.321 332.707 492.58 337.48C491.839 342.253 490.635 346.46 488.966 350.099C487.334 353.722 485.572 356.696 483.679 359.023C481.786 361.349 479.699 363.387 477.417 365.136C472.549 368.914 467.524 371.986 462.34 374.351L442.524 383.393L441.441 425.997L430.858 430.826ZM442.849 371.497L460.289 363.539C467.056 360.451 471.898 357.298 474.814 354.08C477.724 350.818 479.871 346.912 481.257 342.364C482.643 337.815 483.044 333.48 482.459 329.359C482.006 326.169 481.134 323.807 479.844 322.272C478.546 320.694 476.914 319.858 474.946 319.765C472.972 319.628 469.375 320.75 464.156 323.132L443.854 332.396L442.849 371.497ZM500.842 367.752L501.187 354.785L530.992 341.184L530.701 354.127L500.842 367.752Z" fill="#E6007E"/>
<path fill-rule="evenodd" clip-rule="evenodd" d="M377.973 370.293L424.294 310.606C426.391 307.903 430.601 305.247 435.344 303.634L453.278 297.534C459.714 295.345 465.547 295.595 467.134 298.128L488.235 331.814L500.022 286.775C500.882 283.489 506.015 279.598 512.318 277.454L559.831 261.295C570.446 257.684 578.469 255.693 583.95 254.974C590.65 254.064 596.488 254.38 601.252 256.12C605.701 257.724 608.297 260.338 608.929 264.018C609.415 266.852 608.655 270.165 606.539 273.984C606.067 274.837 605.551 275.677 604.993 276.503L647.427 262.071C651.424 260.712 655.331 260.254 658.074 260.823C660.819 261.39 662.103 262.926 661.577 265.005L659.766 272.169C658.936 275.46 653.792 279.371 647.463 281.523L604.531 296.125C600.522 297.488 596.601 297.945 593.858 297.369C591.115 296.792 589.841 295.243 590.39 293.153L591.268 289.808C589.558 291.031 587.82 292.169 586.062 293.222C582.214 295.53 578.052 297.691 573.58 299.696C565.472 303.352 557.203 306.614 548.774 309.481L531.112 315.488L526.442 333.456C525.588 336.743 520.453 340.638 514.144 342.783L498.928 347.958C495.924 348.98 492.969 349.493 490.522 349.443C488.327 351.072 485.512 352.521 482.51 353.542L467.759 358.559C461.339 360.743 455.516 360.5 453.914 357.982L448.692 349.778L421.465 359.038L409.061 375.265C406.98 377.987 402.745 380.671 397.965 382.297L381.273 387.974C381.15 388.015 381.028 388.056 380.905 388.096C380.783 388.14 380.66 388.182 380.537 388.224L363.535 394.007C358.867 395.594 354.37 395.937 351.685 394.91L323.459 384.114L315.734 390.091L311.392 406.606C310.529 409.892 305.398 413.779 299.098 415.922L283.881 421.097C279.876 422.46 275.958 422.917 273.214 422.342C270.471 421.767 269.195 420.222 269.739 418.134L284.897 359.945C285.753 356.658 290.887 352.764 297.194 350.62L312.41 345.444C316.415 344.082 320.332 343.625 323.075 344.199C325.818 344.773 327.096 346.317 326.554 348.404L324.567 356.06L354.347 332.74C356.617 330.962 359.614 329.39 362.795 328.308L384.223 321.02C389.805 319.122 395.036 319.033 397.323 320.797C399.61 322.562 398.468 325.805 394.462 328.92L353.245 360.97L377.973 370.293ZM603.608 289.981L646.539 275.379L648.35 268.215L605.496 282.79L603.608 289.981ZM380.35 381.829L397.042 376.152L412.811 355.523L458.849 339.865L466.836 352.415L481.587 347.398L454.201 303.679L436.267 309.778L380.35 381.829ZM418.447 348.144L434.611 326.946C438.904 321.314 442.097 316.622 444.193 312.87C445.177 316.057 446.952 319.854 449.516 324.264L456.1 335.338L418.447 348.144ZM498.005 341.814L513.221 336.639L519.358 313.027L547.851 303.337C555.303 300.802 562.614 297.917 569.783 294.683C573.141 293.18 576.259 291.564 579.14 289.837C582.021 288.11 584.791 286.058 587.451 283.682C590.163 281.289 592.292 278.696 593.84 275.902C595.387 273.109 595.983 270.675 595.627 268.602C595.197 266.095 593.464 264.297 590.429 263.207C587.39 262.094 583.729 261.832 579.448 262.42C575.214 262.967 568.983 264.64 560.754 267.439L513.241 283.599L498.005 341.814ZM521.102 306.429L526.75 284.756L555.941 274.828C563.446 272.275 568.561 270.801 571.287 270.405C574.008 269.985 576.184 270.053 577.813 270.609C579.438 271.141 580.391 272.228 580.673 273.869C581.037 275.988 580.009 278.46 577.59 281.284C575.172 284.108 571.765 286.762 567.371 289.245C562.973 291.706 555.909 294.591 546.179 297.9L521.102 306.429ZM567.24 277.785C567.181 277.794 567.121 277.803 567.062 277.811C565.252 278.074 561.848 279.277 556.864 280.972L538.499 287.218L536.545 294.718L545.255 291.756C552.494 289.294 557.831 287.299 561.139 285.459C563.203 284.286 564.811 283.034 565.952 281.701C567.007 280.469 567.53 279.377 567.371 278.453C567.326 278.189 567.457 277.894 567.24 277.785ZM567.237 277.783C567.225 277.777 567.211 277.771 567.196 277.767C567.169 277.758 567.143 277.749 567.117 277.74C567.158 277.754 567.18 277.784 567.237 277.783ZM282.958 414.953L298.175 409.778L303.147 390.867L325.415 373.635L362.612 387.862L379.614 382.08L335.778 365.552L385.146 327.165L363.718 334.452L306.062 379.602L313.333 351.589L298.117 356.764L282.958 414.953Z" fill="#E6007E"/>
<path d="M749 227L183 338L170.989 540.383L749 438L749 227Z" fill="#E6007E"/>
<path d="M328.999 232.555C330.684 237.002 335.655 239.241 340.102 237.557C344.549 235.872 346.789 230.901 345.104 226.454C343.419 222.006 338.448 219.767 334.001 221.452C329.554 223.137 327.314 228.108 328.999 232.555Z" fill="#FFFF00"/>
<path d="M296.488 259.699C298.173 264.146 303.144 266.385 307.591 264.7C312.038 263.015 314.277 258.044 312.592 253.597C310.908 249.15 305.937 246.911 301.489 248.596C297.042 250.281 294.803 255.251 296.488 259.699Z" fill="#FFFF00"/>
<path d="M307.677 231.425C308.52 233.649 311.005 234.769 313.229 233.926C315.453 233.084 316.572 230.598 315.73 228.375C314.887 226.151 312.402 225.032 310.178 225.874C307.955 226.716 306.835 229.202 307.677 231.425Z" fill="#FFFF00"/>
<path d="M838.723 379.577C837.313 384.118 839.851 388.943 844.393 390.353C848.935 391.764 853.76 389.225 855.17 384.683C856.58 380.142 854.042 375.317 849.5 373.907C844.958 372.496 840.133 375.035 838.723 379.577Z" fill="#7BFF00"/>
<path d="M796.393 380.95C794.982 385.492 797.521 390.317 802.063 391.727C806.604 393.137 811.429 390.599 812.84 386.057C814.25 381.515 811.711 376.69 807.17 375.28C802.628 373.87 797.803 376.408 796.393 380.95Z" fill="#7BFF00"/>
<path d="M822.617 365.559C821.912 367.83 823.181 370.243 825.452 370.948C827.723 371.653 830.135 370.384 830.84 368.113C831.546 365.842 830.276 363.43 828.005 362.724C825.735 362.019 823.322 363.289 822.617 365.559Z" fill="#7BFF00"/>
<mask id="path-33-outside-1_27_917" maskUnits="userSpaceOnUse" x="146.788" y="200.109" width="645" height="356" fill="black">
<rect fill="white" x="146.788" y="200.109" width="645" height="356"/>
<path d="M192.501 433.027C194.491 432.691 196.308 434.219 196.318 436.237L196.851 539.342C196.859 540.947 195.704 542.32 194.122 542.587L174.285 545.931C172.295 546.267 170.479 544.739 170.468 542.721L169.936 439.616C169.927 438.012 171.083 436.638 172.664 436.371L192.501 433.027Z"/>
<path d="M287.156 445.705C287.255 447.063 286.41 448.29 285.141 448.784L264.862 456.685C262.886 457.455 260.761 456.137 260.023 454.148C257.869 448.34 253.03 447.299 246.688 448.368C240.637 449.389 236.938 453.621 237.584 457.121C239.773 468.99 289.524 460.289 289.774 496.335C289.841 501.031 284.569 529.692 247.796 535.891C216.343 541.194 208.081 523.58 207.307 509.969C207.231 508.624 208.072 507.416 209.328 506.927L229.432 499.095C231.47 498.301 233.661 499.714 234.231 501.826C236.178 509.037 241.295 510 247.777 508.907C255.38 507.625 260.928 502.14 260.014 498.057C257.008 485.227 209.441 496.228 209.346 460.156C209.124 455.486 211.758 427.27 246.514 421.41C277.345 416.212 286.174 432.284 287.156 445.705Z"/>
<path d="M324.037 441.694C324.028 439.675 322.211 438.146 320.22 438.482L296.779 442.434C294.791 442.769 292.975 441.244 292.962 439.228L292.831 418.9C292.821 417.295 293.977 415.919 295.56 415.652L377.772 401.791C379.761 401.456 381.577 402.981 381.59 404.998L381.721 425.325C381.731 426.93 380.575 428.306 378.992 428.573L353.449 432.88C351.867 433.146 350.712 434.519 350.72 436.123L351.086 513.341C351.094 514.944 349.939 516.317 348.358 516.584L328.211 519.98C326.22 520.316 324.403 518.787 324.394 516.768L324.037 441.694Z"/>
<path d="M418.756 397.666C418.747 396.062 419.903 394.688 421.485 394.422L455.98 388.606C485.15 383.688 496.438 393.71 496.543 419.424C496.562 423.926 495.453 432.197 491.384 439.541C490.279 441.535 491.162 444.254 492.952 445.663C497.037 448.879 499.765 454.753 499.791 462.182C500.014 481.601 491.458 492.458 462.288 497.376L423.106 503.982C421.115 504.317 419.299 502.789 419.288 500.771L418.756 397.666ZM445.68 434.813C445.689 436.832 447.506 438.361 449.497 438.026L458.73 436.469C466.178 435.213 469.889 433.646 469.855 423.924C469.821 414.201 466.084 413.89 458.636 415.146L448.344 416.881C446.763 417.147 445.608 418.52 445.615 420.123L445.68 434.813ZM445.727 474.022C445.73 476.045 447.549 477.58 449.544 477.244L460.163 475.453C467.611 474.198 471.35 472.783 471.271 465.422C471.193 458.06 467.893 457.518 460.446 458.774L448.439 460.798C446.862 461.064 445.707 462.431 445.71 464.031L445.727 474.022Z"/>
<path d="M508.742 382.498C508.732 380.893 509.888 379.517 511.471 379.251L531.616 375.854C533.606 375.519 535.422 377.046 535.433 379.064L535.778 441.366C535.767 453.45 536.621 460.68 548.103 458.745C559.585 456.809 560.282 449.317 560.293 437.233L559.943 373.864C559.934 372.259 561.09 370.885 562.672 370.618L582.822 367.221C584.81 366.886 586.626 368.412 586.639 370.429L587.072 441.034C587.063 451.392 585.05 479.503 548.277 485.703C511.504 491.903 509.172 464.523 509.181 454.166L508.742 382.498Z"/>
<path d="M630.016 359.265C631.489 359.016 632.943 359.797 633.55 361.162L651.034 400.458C652.475 403.697 657.318 402.653 657.297 399.108L657.05 357.494C657.041 355.889 658.196 354.514 659.779 354.247L679.924 350.85C681.914 350.515 683.731 352.043 683.741 354.061L684.274 457.166C684.282 458.77 683.127 460.144 681.545 460.41L655.46 464.808C653.981 465.057 652.523 464.271 651.919 462.899L634.488 423.269C633.059 420.019 628.202 421.052 628.219 424.603L628.417 466.584C628.425 468.188 627.27 469.561 625.689 469.827L605.54 473.224C603.55 473.56 601.733 472.032 601.723 470.014L601.19 366.909C601.182 365.305 602.337 363.931 603.919 363.664L630.016 359.265Z"/>
<path d="M724.23 374.224C724.22 372.205 722.403 370.676 720.413 371.012L696.972 374.964C694.983 375.299 693.167 373.774 693.154 371.757L693.023 351.43C693.013 349.825 694.169 348.449 695.752 348.182L777.965 334.321C779.953 333.986 781.769 335.511 781.782 337.528L781.913 357.855C781.923 359.46 780.767 360.836 779.184 361.103L753.641 365.41C752.06 365.676 750.905 367.049 750.912 368.653L751.279 445.871C751.286 447.474 750.131 448.847 748.55 449.114L728.403 452.51C726.413 452.846 724.596 451.317 724.586 449.298L724.23 374.224Z"/>
<path d="M209.34 357.633L247.528 411.796L214.191 417.601L191.945 386.174L183.961 399.117L184.08 422.844L157.35 427.498L156.788 315.278L183.519 310.623L183.736 350.859L211.632 305.728L244.815 299.949L209.34 357.633Z"/>
<path d="M327.573 397.857L301.15 402.458L301.058 378.887L278.629 382.793L278.721 406.364L252.297 410.965L252.01 337.527C251.888 317.331 254.922 295.301 289.488 289.282C324.054 283.263 327.164 304.223 327.286 324.419L327.573 397.857ZM300.863 329.02C300.758 321.336 299.63 317.682 289.491 319.447C279.351 321.213 278.328 325.242 278.434 332.926L278.429 355.069L300.858 351.164L300.863 329.02Z"/>
<path d="M341.618 283.093L380.025 276.405C407.37 271.644 418.546 281.892 418.65 308.189C418.753 334.485 407.808 348.586 380.462 353.347L368.48 355.434L368.603 390.713L342.18 395.314L341.618 283.093ZM368.307 327.866L381.212 325.619C388.586 324.335 392.26 322.732 392.226 312.79C392.193 302.847 388.493 302.529 381.119 303.813L368.214 306.06L368.307 327.866Z"/>
<path d="M427.883 268.072L466.289 261.384C493.634 256.622 504.81 266.871 504.914 293.167C505.017 319.464 494.072 333.564 466.726 338.326L454.744 340.413L454.867 375.691L428.444 380.292L427.883 268.072ZM454.571 312.844L467.476 310.597C474.85 309.313 478.524 307.711 478.49 297.768C478.457 287.826 474.757 287.508 467.383 288.792L454.478 291.039L454.571 312.844Z"/>
<path d="M587.887 240.21L588.059 267.778L541.664 275.857L541.763 290.602L574.793 284.85L574.965 312.418L541.935 318.17L541.881 332.941L588.276 324.862L588.448 352.431L514.708 365.271L514.147 253.05L587.887 240.21Z"/>
<path d="M626.084 233.559L626.473 318.211L669.949 310.64L670.121 338.209L600.222 350.38L599.66 238.16L626.084 233.559Z"/>
<path d="M710.056 218.936L734.681 276.103L734.328 214.71L760.752 210.109L761.313 322.329L730.281 327.733L705.726 270.073L706.008 331.96L679.585 336.561L679.023 224.34L710.056 218.936Z"/>
</mask>
<path d="M192.501 433.027C194.491 432.691 196.308 434.219 196.318 436.237L196.851 539.342C196.859 540.947 195.704 542.32 194.122 542.587L174.285 545.931C172.295 546.267 170.479 544.739 170.468 542.721L169.936 439.616C169.927 438.012 171.083 436.638 172.664 436.371L192.501 433.027Z" fill="#FFFF00"/>
<path d="M287.156 445.705C287.255 447.063 286.41 448.29 285.141 448.784L264.862 456.685C262.886 457.455 260.761 456.137 260.023 454.148C257.869 448.34 253.03 447.299 246.688 448.368C240.637 449.389 236.938 453.621 237.584 457.121C239.773 468.99 289.524 460.289 289.774 496.335C289.841 501.031 284.569 529.692 247.796 535.891C216.343 541.194 208.081 523.58 207.307 509.969C207.231 508.624 208.072 507.416 209.328 506.927L229.432 499.095C231.47 498.301 233.661 499.714 234.231 501.826C236.178 509.037 241.295 510 247.777 508.907C255.38 507.625 260.928 502.14 260.014 498.057C257.008 485.227 209.441 496.228 209.346 460.156C209.124 455.486 211.758 427.27 246.514 421.41C277.345 416.212 286.174 432.284 287.156 445.705Z" fill="#FFFF00"/>
<path d="M324.037 441.694C324.028 439.675 322.211 438.146 320.22 438.482L296.779 442.434C294.791 442.769 292.975 441.244 292.962 439.228L292.831 418.9C292.821 417.295 293.977 415.919 295.56 415.652L377.772 401.791C379.761 401.456 381.577 402.981 381.59 404.998L381.721 425.325C381.731 426.93 380.575 428.306 378.992 428.573L353.449 432.88C351.867 433.146 350.712 434.519 350.72 436.123L351.086 513.341C351.094 514.944 349.939 516.317 348.358 516.584L328.211 519.98C326.22 520.316 324.403 518.787 324.394 516.768L324.037 441.694Z" fill="#FFFF00"/>
<path d="M418.756 397.666C418.747 396.062 419.903 394.688 421.485 394.422L455.98 388.606C485.15 383.688 496.438 393.71 496.543 419.424C496.562 423.926 495.453 432.197 491.384 439.541C490.279 441.535 491.162 444.254 492.952 445.663C497.037 448.879 499.765 454.753 499.791 462.182C500.014 481.601 491.458 492.458 462.288 497.376L423.106 503.982C421.115 504.317 419.299 502.789 419.288 500.771L418.756 397.666ZM445.68 434.813C445.689 436.832 447.506 438.361 449.497 438.026L458.73 436.469C466.178 435.213 469.889 433.646 469.855 423.924C469.821 414.201 466.084 413.89 458.636 415.146L448.344 416.881C446.763 417.147 445.608 418.52 445.615 420.123L445.68 434.813ZM445.727 474.022C445.73 476.045 447.549 477.58 449.544 477.244L460.163 475.453C467.611 474.198 471.35 472.783 471.271 465.422C471.193 458.06 467.893 457.518 460.446 458.774L448.439 460.798C446.862 461.064 445.707 462.431 445.71 464.031L445.727 474.022Z" fill="#FFFF00"/>
<path d="M508.742 382.498C508.732 380.893 509.888 379.517 511.471 379.251L531.616 375.854C533.606 375.519 535.422 377.046 535.433 379.064L535.778 441.366C535.767 453.45 536.621 460.68 548.103 458.745C559.585 456.809 560.282 449.317 560.293 437.233L559.943 373.864C559.934 372.259 561.09 370.885 562.672 370.618L582.822 367.221C584.81 366.886 586.626 368.412 586.639 370.429L587.072 441.034C587.063 451.392 585.05 479.503 548.277 485.703C511.504 491.903 509.172 464.523 509.181 454.166L508.742 382.498Z" fill="#FFFF00"/>
<path d="M630.016 359.265C631.489 359.016 632.943 359.797 633.55 361.162L651.034 400.458C652.475 403.697 657.318 402.653 657.297 399.108L657.05 357.494C657.041 355.889 658.196 354.514 659.779 354.247L679.924 350.85C681.914 350.515 683.731 352.043 683.741 354.061L684.274 457.166C684.282 458.77 683.127 460.144 681.545 460.41L655.46 464.808C653.981 465.057 652.523 464.271 651.919 462.899L634.488 423.269C633.059 420.019 628.202 421.052 628.219 424.603L628.417 466.584C628.425 468.188 627.27 469.561 625.689 469.827L605.54 473.224C603.55 473.56 601.733 472.032 601.723 470.014L601.19 366.909C601.182 365.305 602.337 363.931 603.919 363.664L630.016 359.265Z" fill="#FFFF00"/>
<path d="M724.23 374.224C724.22 372.205 722.403 370.676 720.413 371.012L696.972 374.964C694.983 375.299 693.167 373.774 693.154 371.757L693.023 351.43C693.013 349.825 694.169 348.449 695.752 348.182L777.965 334.321C779.953 333.986 781.769 335.511 781.782 337.528L781.913 357.855C781.923 359.46 780.767 360.836 779.184 361.103L753.641 365.41C752.06 365.676 750.905 367.049 750.912 368.653L751.279 445.871C751.286 447.474 750.131 448.847 748.55 449.114L728.403 452.51C726.413 452.846 724.596 451.317 724.586 449.298L724.23 374.224Z" fill="#FFFF00"/>
<path d="M209.34 357.633L247.528 411.796L214.191 417.601L191.945 386.174L183.961 399.117L184.08 422.844L157.35 427.498L156.788 315.278L183.519 310.623L183.736 350.859L211.632 305.728L244.815 299.949L209.34 357.633Z" fill="#FFFF00"/>
<path d="M327.573 397.857L301.15 402.458L301.058 378.887L278.629 382.793L278.721 406.364L252.297 410.965L252.01 337.527C251.888 317.331 254.922 295.301 289.488 289.282C324.054 283.263 327.164 304.223 327.286 324.419L327.573 397.857ZM300.863 329.02C300.758 321.336 299.63 317.682 289.491 319.447C279.351 321.213 278.328 325.242 278.434 332.926L278.429 355.069L300.858 351.164L300.863 329.02Z" fill="#FFFF00"/>
<path d="M341.618 283.093L380.025 276.405C407.37 271.644 418.546 281.892 418.65 308.189C418.753 334.485 407.808 348.586 380.462 353.347L368.48 355.434L368.603 390.713L342.18 395.314L341.618 283.093ZM368.307 327.866L381.212 325.619C388.586 324.335 392.26 322.732 392.226 312.79C392.193 302.847 388.493 302.529 381.119 303.813L368.214 306.06L368.307 327.866Z" fill="#FFFF00"/>
<path d="M427.883 268.072L466.289 261.384C493.634 256.622 504.81 266.871 504.914 293.167C505.017 319.464 494.072 333.564 466.726 338.326L454.744 340.413L454.867 375.691L428.444 380.292L427.883 268.072ZM454.571 312.844L467.476 310.597C474.85 309.313 478.524 307.711 478.49 297.768C478.457 287.826 474.757 287.508 467.383 288.792L454.478 291.039L454.571 312.844Z" fill="#FFFF00"/>
<path d="M587.887 240.21L588.059 267.778L541.664 275.857L541.763 290.602L574.793 284.85L574.965 312.418L541.935 318.17L541.881 332.941L588.276 324.862L588.448 352.431L514.708 365.271L514.147 253.05L587.887 240.21Z" fill="#FFFF00"/>
<path d="M626.084 233.559L626.473 318.211L669.949 310.64L670.121 338.209L600.222 350.38L599.66 238.16L626.084 233.559Z" fill="#FFFF00"/>
<path d="M710.056 218.936L734.681 276.103L734.328 214.71L760.752 210.109L761.313 322.329L730.281 327.733L705.726 270.073L706.008 331.96L679.585 336.561L679.023 224.34L710.056 218.936Z" fill="#FFFF00"/>
<path d="M246.688 448.368L245.055 438.685L246.688 448.368ZM237.584 457.121L247.241 455.339L237.584 457.121ZM289.774 496.335L279.954 496.403L279.955 496.438L279.955 496.474L289.774 496.335ZM247.796 535.891L246.163 526.208L247.796 535.891ZM247.777 508.907L249.41 518.59L247.777 508.907ZM260.014 498.057L269.598 495.914L269.587 495.865L269.575 495.816L260.014 498.057ZM209.346 460.156L219.166 460.13L219.165 459.91L219.155 459.69L209.346 460.156ZM246.514 421.41L244.881 411.727L246.514 421.41ZM455.98 388.606L457.612 398.289H457.612L455.98 388.606ZM496.543 419.424L486.723 419.464V419.468L496.543 419.424ZM499.791 462.182L489.971 462.217L489.971 462.256L489.972 462.295L499.791 462.182ZM462.288 497.376L460.655 487.692L462.288 497.376ZM458.73 436.469L457.098 426.786L458.73 436.469ZM469.855 423.924L460.035 423.958L469.855 423.924ZM458.636 415.146L457.004 405.462L458.636 415.146ZM460.163 475.453L458.531 465.77L460.163 475.453ZM471.271 465.422L461.452 465.526L471.271 465.422ZM460.446 458.774L462.078 468.457H462.078L460.446 458.774ZM535.778 441.366L545.598 441.375L545.598 441.344L545.597 441.312L535.778 441.366ZM560.293 437.233L570.113 437.242L570.113 437.21L570.113 437.179L560.293 437.233ZM587.072 441.034L596.892 441.043L596.892 441.009L596.892 440.974L587.072 441.034ZM509.181 454.166L519.001 454.175L519.001 454.14L519.001 454.106L509.181 454.166ZM696.972 374.964L695.339 365.28L696.972 374.964ZM693.154 371.757L683.335 371.821L693.154 371.757ZM720.413 371.012L722.045 380.695L720.413 371.012ZM724.23 374.224L714.41 374.27L724.23 374.224ZM601.19 366.909L591.37 366.959L601.19 366.909ZM603.919 363.664L605.552 373.348H605.552L603.919 363.664ZM605.54 473.224L607.173 482.908H607.173L605.54 473.224ZM601.723 470.014L611.543 469.963V469.963L601.723 470.014ZM655.46 464.808L653.827 455.125L655.46 464.808ZM651.919 462.899L660.908 458.945V458.945L651.919 462.899ZM684.274 457.166L694.094 457.115L684.274 457.166ZM681.545 460.41L683.177 470.094L681.545 460.41ZM679.924 350.85L678.292 341.167L679.924 350.85ZM683.741 354.061L673.921 354.112L683.741 354.061ZM657.05 357.494L647.23 357.552L657.05 357.494ZM659.779 354.247L661.412 363.93L659.779 354.247ZM559.943 373.864L550.123 373.918L559.943 373.864ZM562.672 370.618L561.039 360.935H561.039L562.672 370.618ZM531.616 375.854L529.984 366.171L531.616 375.854ZM535.433 379.064L525.614 379.118L535.433 379.064ZM511.471 379.251L513.103 388.934L511.471 379.251ZM508.742 382.498L498.922 382.558L508.742 382.498ZM449.544 477.244L451.176 486.927L449.544 477.244ZM445.727 474.022L455.547 474.005V474.005L445.727 474.022ZM448.344 416.881L449.977 426.564H449.977L448.344 416.881ZM445.615 420.123L435.795 420.166L445.615 420.123ZM449.497 438.026L451.13 447.709L449.497 438.026ZM445.68 434.813L455.5 434.769L445.68 434.813ZM423.106 503.982L424.738 513.665L423.106 503.982ZM419.288 500.771L409.469 500.822L419.288 500.771ZM351.086 513.341L360.906 513.294L351.086 513.341ZM348.358 516.584L346.725 506.9H346.725L348.358 516.584ZM728.403 452.51L726.771 442.827L728.403 452.51ZM724.586 449.298L734.406 449.252L724.586 449.298ZM353.449 432.88L351.816 423.196L353.449 432.88ZM350.72 436.123L340.9 436.169L350.72 436.123ZM751.279 445.871L741.459 445.917L751.279 445.871ZM748.55 449.114L750.182 458.797L748.55 449.114ZM381.721 425.325L371.901 425.388L381.721 425.325ZM378.992 428.573L380.624 438.257L378.992 428.573ZM753.641 365.41L755.274 375.093L753.641 365.41ZM750.912 368.653L760.732 368.606L750.912 368.653ZM377.772 401.791L376.14 392.108L377.772 401.791ZM381.59 404.998L391.409 404.934L381.59 404.998ZM781.913 357.855L772.093 357.918V357.918L781.913 357.855ZM779.184 361.103L777.552 351.42L779.184 361.103ZM292.831 418.9L283.011 418.964L292.831 418.9ZM295.56 415.652L297.192 425.335L295.56 415.652ZM448.439 460.798L446.806 451.115H446.806L448.439 460.798ZM445.71 464.031L435.89 464.048L445.71 464.031ZM777.965 334.321L779.597 344.005L777.965 334.321ZM781.782 337.528L791.602 337.464V337.464L781.782 337.528ZM296.779 442.434L298.412 452.117L296.779 442.434ZM292.962 439.228L302.782 439.164L292.962 439.228ZM634.488 423.269L625.499 427.223V427.223L634.488 423.269ZM628.219 424.603L618.399 424.649L628.219 424.603ZM207.307 509.969L197.503 510.527L207.307 509.969ZM209.328 506.927L212.893 516.077H212.893L209.328 506.927ZM693.023 351.43L702.843 351.367L693.023 351.43ZM695.752 348.182L694.12 338.498L695.752 348.182ZM320.22 438.482L318.588 428.798L320.22 438.482ZM324.037 441.694L333.857 441.647L324.037 441.694ZM651.034 400.458L642.062 404.45H642.062L651.034 400.458ZM657.297 399.108L667.117 399.05L657.297 399.108ZM264.862 456.685L268.427 465.835H268.427L264.862 456.685ZM260.023 454.148L250.816 457.563L260.023 454.148ZM491.384 439.541L482.794 434.782L491.384 439.541ZM492.952 445.663L486.878 453.379L492.952 445.663ZM633.55 361.162L642.522 357.17L642.522 357.17L633.55 361.162ZM630.016 359.265L628.383 349.581H628.383L630.016 359.265ZM285.141 448.784L281.577 439.634H281.577L285.141 448.784ZM287.156 445.705L277.362 446.421L287.156 445.705ZM169.936 439.616L160.116 439.666L169.936 439.616ZM172.664 436.371L174.297 446.055H174.297L172.664 436.371ZM174.285 545.931L172.653 536.248H172.653L174.285 545.931ZM170.468 542.721L180.288 542.67L170.468 542.721ZM421.485 394.422L419.852 384.738H419.852L421.485 394.422ZM418.756 397.666L428.576 397.615L418.756 397.666ZM196.851 539.342L187.031 539.393L196.851 539.342ZM194.122 542.587L195.755 552.27H195.755L194.122 542.587ZM628.417 466.584L638.237 466.538V466.538L628.417 466.584ZM625.689 469.827L624.056 460.144H624.056L625.689 469.827ZM229.432 499.095L225.867 489.944L229.432 499.095ZM234.231 501.826L243.711 499.266L234.231 501.826ZM328.211 519.98L329.843 529.664H329.843L328.211 519.98ZM324.394 516.768L314.574 516.815L324.394 516.768ZM582.822 367.221L584.454 376.905H584.454L582.822 367.221ZM586.639 370.429L576.819 370.489L586.639 370.429ZM196.318 436.237L206.138 436.187L196.318 436.237ZM192.501 433.027L190.869 423.344H190.869L192.501 433.027ZM209.34 357.633L200.976 352.489C198.919 355.833 199.052 360.082 201.315 363.291L209.34 357.633ZM247.528 411.796L249.212 421.47C252.527 420.893 255.316 418.658 256.602 415.549C257.888 412.439 257.492 408.887 255.553 406.137L247.528 411.796ZM214.191 417.601L206.176 423.274C208.366 426.368 212.141 427.925 215.876 427.275L214.191 417.601ZM191.945 386.174L199.96 380.501C198.056 377.81 194.929 376.255 191.635 376.359C188.34 376.463 185.318 378.213 183.587 381.018L191.945 386.174ZM183.961 399.117L175.603 393.962C174.638 395.526 174.132 397.329 174.141 399.167L183.961 399.117ZM184.08 422.844L185.765 432.518C190.486 431.696 193.924 427.586 193.9 422.794L184.08 422.844ZM157.35 427.498L147.53 427.548C147.544 430.438 148.831 433.175 151.048 435.03C153.265 436.885 156.187 437.669 159.034 437.173L157.35 427.498ZM156.788 315.278L155.104 305.603C150.383 306.425 146.944 310.535 146.968 315.327L156.788 315.278ZM183.519 310.623L193.339 310.57C193.323 307.68 192.036 304.944 189.819 303.09C187.602 301.236 184.681 300.453 181.834 300.949L183.519 310.623ZM183.736 350.859L173.917 350.912C173.94 355.292 176.862 359.127 181.078 360.313C185.295 361.498 189.787 359.748 192.09 356.023L183.736 350.859ZM211.632 305.728L209.948 296.053C207.182 296.535 204.755 298.177 203.279 300.565L211.632 305.728ZM244.815 299.949L253.18 305.094C255.203 301.804 255.11 297.634 252.943 294.438C250.775 291.242 246.936 289.613 243.131 290.275L244.815 299.949ZM327.573 397.857L329.258 407.532C333.975 406.71 337.412 402.607 337.393 397.819L327.573 397.857ZM301.15 402.458L291.33 402.497C291.341 405.389 292.627 408.129 294.844 409.986C297.062 411.844 299.985 412.629 302.835 412.133L301.15 402.458ZM301.058 378.887L310.878 378.849C310.867 375.957 309.581 373.216 307.364 371.359C305.146 369.502 302.223 368.717 299.373 369.213L301.058 378.887ZM278.629 382.793L276.944 373.119C272.227 373.94 268.79 378.043 268.809 382.831L278.629 382.793ZM278.721 406.364L280.405 416.038C285.122 415.217 288.559 411.114 288.541 406.326L278.721 406.364ZM252.297 410.965L242.477 411.003C242.489 413.896 243.774 416.636 245.992 418.493C248.209 420.35 251.132 421.136 253.982 420.639L252.297 410.965ZM252.01 337.527L261.83 337.488C261.83 337.481 261.83 337.474 261.83 337.467L252.01 337.527ZM289.488 289.282L291.173 298.957L289.488 289.282ZM327.286 324.419L337.106 324.38C337.106 324.373 337.106 324.366 337.106 324.359L327.286 324.419ZM300.863 329.02L310.683 329.022C310.683 328.977 310.683 328.931 310.682 328.885L300.863 329.02ZM289.491 319.447L287.806 309.773L289.491 319.447ZM278.434 332.926L288.254 332.928C288.254 332.882 288.253 332.837 288.253 332.791L278.434 332.926ZM278.429 355.069L268.609 355.067C268.608 357.966 269.889 360.718 272.108 362.584C274.327 364.451 277.257 365.241 280.114 364.744L278.429 355.069ZM300.858 351.164L302.543 360.838C307.245 360.019 310.677 355.938 310.678 351.166L300.858 351.164ZM341.618 283.093L339.934 273.419C335.213 274.241 331.775 278.35 331.799 283.142L341.618 283.093ZM380.025 276.405L378.34 266.731H378.34L380.025 276.405ZM380.462 353.347L382.147 363.022L380.462 353.347ZM368.48 355.434L366.795 345.76C362.079 346.581 358.643 350.682 358.66 355.468L368.48 355.434ZM368.603 390.713L370.288 400.387C375.003 399.566 378.44 395.465 378.423 390.678L368.603 390.713ZM342.18 395.314L332.36 395.363C332.374 398.253 333.661 400.99 335.878 402.845C338.095 404.7 341.017 405.484 343.864 404.988L342.18 395.314ZM368.307 327.866L358.487 327.908C358.5 330.799 359.786 333.539 362.003 335.395C364.22 337.251 367.143 338.036 369.992 337.54L368.307 327.866ZM381.212 325.619L379.527 315.944H379.527L381.212 325.619ZM392.226 312.79L382.406 312.823L392.226 312.79ZM381.119 303.813L379.434 294.139H379.434L381.119 303.813ZM368.214 306.06L366.529 296.386C361.811 297.207 358.374 301.313 358.394 306.102L368.214 306.06ZM427.883 268.072L426.198 258.397C421.477 259.219 418.039 263.329 418.063 268.121L427.883 268.072ZM466.289 261.384L467.973 271.058L466.289 261.384ZM466.726 338.326L465.042 328.652L466.726 338.326ZM454.744 340.413L453.059 330.738C448.343 331.559 444.907 335.661 444.924 340.447L454.744 340.413ZM454.867 375.691L456.552 385.366C461.267 384.545 464.704 380.443 464.687 375.657L454.867 375.691ZM428.444 380.292L418.624 380.341C418.638 383.232 419.926 385.969 422.142 387.824C424.359 389.679 427.281 390.463 430.128 389.967L428.444 380.292ZM454.571 312.844L444.752 312.886C444.764 315.778 446.05 318.517 448.267 320.374C450.485 322.23 453.407 323.015 456.256 322.519L454.571 312.844ZM467.476 310.597L469.161 320.272L467.476 310.597ZM478.49 297.768L468.67 297.802L478.49 297.768ZM467.383 288.792L465.698 279.117L467.383 288.792ZM454.478 291.039L452.794 281.364C448.075 282.186 444.638 286.292 444.658 291.081L454.478 291.039ZM587.887 240.21L597.706 240.149C597.688 237.26 596.4 234.526 594.183 232.674C591.967 230.822 589.048 230.04 586.202 230.536L587.887 240.21ZM588.059 267.778L589.743 277.453C594.469 276.63 597.909 272.513 597.879 267.717L588.059 267.778ZM541.664 275.857L539.979 266.183C535.252 267.006 531.812 271.125 531.844 275.923L541.664 275.857ZM541.763 290.602L531.943 290.668C531.963 293.555 533.252 296.288 535.468 298.139C537.685 299.99 540.603 300.771 543.448 300.276L541.763 290.602ZM574.793 284.85L584.612 284.789C584.594 281.901 583.306 279.167 581.089 277.315C578.873 275.463 575.953 274.68 573.108 275.176L574.793 284.85ZM574.965 312.418L576.649 322.093C581.375 321.27 584.815 317.154 584.785 312.357L574.965 312.418ZM541.935 318.17L540.251 308.495C535.561 309.312 532.133 313.374 532.115 318.134L541.935 318.17ZM541.881 332.941L532.061 332.905C532.05 335.81 533.327 338.571 535.547 340.445C537.767 342.319 540.703 343.114 543.566 342.616L541.881 332.941ZM588.276 324.862L598.096 324.801C598.078 321.913 596.789 319.179 594.572 317.327C592.356 315.475 589.437 314.692 586.591 315.188L588.276 324.862ZM588.448 352.431L590.133 362.105C594.858 361.282 598.298 357.166 598.268 352.369L588.448 352.431ZM514.708 365.271L504.888 365.32C504.902 368.211 506.19 370.948 508.407 372.803C510.623 374.657 513.545 375.441 516.393 374.945L514.708 365.271ZM514.147 253.05L512.462 243.376C507.741 244.198 504.303 248.308 504.327 253.1L514.147 253.05ZM626.084 233.559L635.904 233.513C635.891 230.622 634.604 227.884 632.387 226.028C630.17 224.173 627.248 223.388 624.399 223.884L626.084 233.559ZM626.473 318.211L616.653 318.256C616.667 321.147 617.953 323.886 620.17 325.741C622.387 327.597 625.309 328.381 628.158 327.885L626.473 318.211ZM669.949 310.64L679.769 310.579C679.751 307.691 678.462 304.957 676.246 303.105C674.029 301.253 671.11 300.471 668.264 300.966L669.949 310.64ZM670.121 338.209L671.806 347.883C676.531 347.06 679.971 342.944 679.941 338.147L670.121 338.209ZM600.222 350.38L590.402 350.43C590.416 353.32 591.704 356.057 593.92 357.912C596.137 359.767 599.059 360.551 601.906 360.055L600.222 350.38ZM599.66 238.16L597.976 228.485C593.255 229.307 589.817 233.417 589.841 238.209L599.66 238.16ZM710.056 218.936L719.074 215.051C717.276 210.877 712.849 208.482 708.371 209.262L710.056 218.936ZM734.681 276.103L725.663 279.988C727.51 284.276 732.122 286.671 736.693 285.714C741.263 284.758 744.528 280.716 744.501 276.046L734.681 276.103ZM734.328 214.71L732.644 205.035C727.92 205.858 724.481 209.972 724.509 214.766L734.328 214.71ZM760.752 210.109L770.572 210.06C770.557 207.169 769.27 204.432 767.053 202.577C764.836 200.722 761.915 199.938 759.067 200.434L760.752 210.109ZM761.313 322.329L762.998 332.004C767.719 331.182 771.157 327.072 771.133 322.28L761.313 322.329ZM730.281 327.733L721.246 331.581C723.033 335.776 727.473 338.19 731.966 337.407L730.281 327.733ZM705.726 270.073L714.76 266.226C712.929 261.924 708.319 259.511 703.74 260.456C699.162 261.401 695.884 265.443 695.906 270.118L705.726 270.073ZM706.008 331.96L707.693 341.634C712.412 340.812 715.85 336.705 715.828 331.915L706.008 331.96ZM679.585 336.561L669.765 336.61C669.779 339.5 671.067 342.238 673.283 344.092C675.5 345.947 678.422 346.731 681.269 346.235L679.585 336.561ZM679.023 224.34L677.339 214.666C672.618 215.488 669.18 219.597 669.204 224.389L679.023 224.34ZM186.498 436.288L187.031 539.393L206.671 539.292L206.138 436.187L186.498 436.288ZM192.49 532.904L172.653 536.248L175.918 555.615L195.755 552.27L192.49 532.904ZM180.288 542.67L179.755 439.565L160.116 439.666L160.648 542.771L180.288 542.67ZM174.297 446.055L194.134 442.71L190.869 423.344L171.032 426.688L174.297 446.055ZM281.577 439.634L261.298 447.535L268.427 465.835L288.706 457.935L281.577 439.634ZM269.23 450.733C267.275 445.463 263.603 441.446 258.376 439.485C253.724 437.74 248.903 438.036 245.055 438.685L248.32 458.052C249.475 457.857 250.305 457.804 250.874 457.82C251.438 457.835 251.585 457.914 251.476 457.873C251.314 457.812 251.043 457.66 250.815 457.42C250.608 457.203 250.664 457.154 250.816 457.563L269.23 450.733ZM245.055 438.685C240.207 439.502 235.826 441.681 232.632 444.92C229.572 448.023 226.843 453.032 227.926 458.903L247.241 455.339C247.454 456.498 247.25 457.426 247.04 457.967C246.837 458.49 246.617 458.709 246.617 458.71C246.606 458.721 246.721 458.604 247.02 458.454C247.311 458.309 247.741 458.149 248.32 458.052L245.055 438.685ZM227.926 458.903C228.896 464.159 232.442 467.337 235.29 469.094C238.049 470.795 241.239 471.863 243.938 472.631C246.72 473.423 249.88 474.134 252.77 474.805C255.783 475.506 258.723 476.211 261.59 477.069C267.456 478.825 272.029 480.949 275.105 483.833C277.806 486.366 279.91 489.985 279.954 496.403L299.594 496.267C299.513 484.662 295.305 475.851 288.539 469.507C282.147 463.514 274.099 460.312 267.222 458.254C263.717 457.205 260.256 456.382 257.216 455.675C254.053 454.94 251.509 454.366 249.316 453.742C247.039 453.094 245.981 452.612 245.599 452.377C245.306 452.196 246.818 453.05 247.241 455.339L227.926 458.903ZM279.955 496.474C279.953 496.322 279.89 497.937 279.028 500.738C278.22 503.365 276.825 506.641 274.527 509.958C270.095 516.357 261.881 523.558 246.163 526.208L249.429 545.575C270.484 542.025 283.293 531.795 290.673 521.141C297.723 510.961 299.656 500.625 299.593 496.196L279.955 496.474ZM246.163 526.208C232.311 528.543 225.759 525.53 222.588 522.699C219.141 519.621 217.415 514.747 217.112 509.412L197.503 510.527C197.974 518.803 200.765 529.541 209.506 537.347C218.523 545.4 231.828 548.542 249.429 545.575L246.163 526.208ZM212.893 516.077L232.996 508.245L225.867 489.944L205.763 497.777L212.893 516.077ZM224.75 504.385C226.316 510.185 229.728 515.047 235.417 517.499C240.401 519.647 245.617 519.23 249.41 518.59L246.145 499.224C244.927 499.429 244.09 499.481 243.539 499.462C243.002 499.443 242.961 499.364 243.19 499.462C243.494 499.594 243.798 499.831 243.977 500.059C244.111 500.23 243.934 500.091 243.711 499.266L224.75 504.385ZM249.41 518.59C254.998 517.648 260.049 515.148 263.732 511.764C266.966 508.794 271.194 503.052 269.598 495.914L250.431 500.201C250.079 498.627 250.485 497.516 250.637 497.187C250.785 496.866 250.823 496.954 250.447 497.3C249.684 498.001 248.16 498.884 246.145 499.224L249.41 518.59ZM269.575 495.816C268.426 490.912 265.187 487.784 262.2 485.908C259.374 484.134 256.156 483.068 253.435 482.323C250.641 481.559 247.526 480.92 244.703 480.327C241.754 479.708 238.93 479.103 236.182 478.351C230.554 476.81 226.365 474.926 223.6 472.331C221.227 470.104 219.183 466.694 219.166 460.13L199.526 460.182C199.556 471.653 203.494 480.396 210.16 486.652C216.435 492.541 224.344 495.472 230.995 497.294C234.386 498.222 237.748 498.935 240.67 499.549C243.718 500.188 246.16 500.695 248.25 501.267C250.413 501.859 251.404 502.32 251.756 502.541C251.946 502.66 250.851 501.995 250.454 500.298L269.575 495.816ZM219.155 459.69C219.156 459.719 219.151 459.607 219.159 459.345C219.168 459.096 219.188 458.755 219.228 458.334C219.31 457.489 219.469 456.382 219.756 455.099C220.333 452.517 221.393 449.379 223.255 446.247C226.782 440.313 233.662 433.535 248.147 431.094L244.881 411.727C224.61 415.145 212.796 425.405 206.372 436.212C200.25 446.512 199.351 456.712 199.537 460.621L219.155 459.69ZM248.147 431.094C261.85 428.783 268.554 431.519 271.82 434.184C275.223 436.961 276.992 441.365 277.362 446.421L296.95 444.989C296.338 436.624 293.202 426.282 284.237 418.967C275.135 411.541 262.009 408.839 244.881 411.727L248.147 431.094ZM318.588 428.798L295.147 432.751L298.412 452.117L321.853 448.165L318.588 428.798ZM302.782 439.164L302.651 418.837L283.011 418.964L283.142 439.291L302.782 439.164ZM297.192 425.335L379.405 411.475L376.14 392.108L293.927 405.968L297.192 425.335ZM371.77 405.061L371.901 425.388L391.54 425.261L391.409 404.934L371.77 405.061ZM377.359 418.89L351.816 423.196L355.081 442.563L380.624 438.257L377.359 418.89ZM340.9 436.169L341.267 513.387L360.906 513.294L360.54 436.076L340.9 436.169ZM346.725 506.9L326.578 510.297L329.843 529.664L349.99 526.267L346.725 506.9ZM334.214 516.722L333.857 441.647L314.217 441.74L314.574 516.815L334.214 516.722ZM423.117 404.105L457.612 398.289L454.347 378.923L419.852 384.738L423.117 404.105ZM457.612 398.289C471.472 395.953 477.983 397.8 481.085 400.242C483.974 402.518 486.674 407.556 486.723 419.464L506.362 419.385C506.306 405.578 503.31 392.748 493.237 384.814C483.376 377.046 469.658 376.341 454.347 378.923L457.612 398.289ZM486.723 419.468C486.737 422.771 485.844 429.278 482.794 434.782L499.973 444.3C505.062 435.117 506.388 425.081 506.362 419.381L486.723 419.468ZM486.878 453.379C488.067 454.315 489.953 457.023 489.971 462.217L509.611 462.148C509.578 452.484 506.008 443.444 499.027 437.948L486.878 453.379ZM489.972 462.295C490.067 470.549 488.307 475.085 485.119 478.272C481.53 481.861 474.557 485.349 460.655 487.692L463.92 507.059C479.188 504.485 491.079 500.085 499.005 492.161C507.332 483.836 509.739 473.235 509.611 462.07L489.972 462.295ZM460.655 487.692L421.473 494.298L424.738 513.665L463.92 507.059L460.655 487.692ZM429.108 500.72L428.576 397.615L408.936 397.717L409.469 500.822L429.108 500.72ZM451.13 447.709L460.363 446.152L457.098 426.786L447.865 428.342L451.13 447.709ZM460.363 446.152C463.793 445.574 469.553 444.589 473.867 440.486C478.685 435.902 479.695 429.645 479.675 423.89L460.035 423.958C460.042 425.84 459.855 426.712 459.771 426.991C459.728 427.135 459.844 426.719 460.33 426.256C460.747 425.86 460.983 425.869 460.447 426.051C459.84 426.258 458.861 426.488 457.098 426.786L460.363 446.152ZM479.675 423.89C479.657 418.812 478.877 411.129 472.126 407.026C469.052 405.158 465.86 404.808 463.558 404.8C461.266 404.793 458.935 405.137 457.004 405.462L460.269 424.829C461.115 424.686 461.796 424.585 462.365 424.521C462.938 424.456 463.293 424.44 463.495 424.44C463.699 424.441 463.616 424.459 463.347 424.4C463.056 424.336 462.533 424.179 461.926 423.81C461.626 423.628 461.335 423.411 461.064 423.164C460.794 422.917 460.568 422.663 460.385 422.417C460.02 421.928 459.877 421.549 459.845 421.456C459.817 421.374 459.871 421.505 459.928 421.952C459.985 422.393 460.032 423.043 460.035 423.958L479.675 423.89ZM457.004 405.462L446.711 407.198L449.977 426.564L460.269 424.829L457.004 405.462ZM435.795 420.166L435.86 434.856L455.5 434.769L455.435 420.079L435.795 420.166ZM451.176 486.927L461.796 485.137L458.531 465.77L447.911 467.56L451.176 486.927ZM461.796 485.137C465.191 484.564 470.448 483.655 474.535 480.504C479.733 476.497 481.148 470.729 481.091 465.317L461.452 465.526C461.463 466.597 461.319 466.736 461.448 466.399C461.523 466.205 461.659 465.93 461.881 465.631C462.104 465.332 462.343 465.105 462.544 464.95C462.898 464.677 462.961 464.764 462.198 464.995C461.426 465.23 460.304 465.471 458.531 465.77L461.796 485.137ZM481.091 465.317C481.044 460.869 480.052 453.665 473.077 450.115C470.209 448.655 467.307 448.411 465.191 448.428C463.032 448.445 460.809 448.754 458.813 449.091L462.078 468.457C463.806 468.166 464.789 468.072 465.346 468.067C465.946 468.063 465.269 468.179 464.168 467.618C463.561 467.309 462.954 466.86 462.436 466.276C461.93 465.707 461.649 465.17 461.507 464.822C461.373 464.496 461.365 464.348 461.387 464.49C461.409 464.631 461.446 464.956 461.452 465.526L481.091 465.317ZM458.813 449.091L446.806 451.115L450.072 470.482L462.078 468.457L458.813 449.091ZM435.89 464.048L435.907 474.038L455.547 474.005L455.53 464.015L435.89 464.048ZM513.103 388.934L533.249 385.537L529.984 366.171L509.838 369.567L513.103 388.934ZM525.614 379.118L525.958 441.421L545.597 441.312L545.253 379.009L525.614 379.118ZM525.958 441.358C525.955 444.409 526.001 447.596 526.323 450.525C526.637 453.38 527.286 456.798 528.974 459.949C530.839 463.432 533.844 466.325 538.081 467.811C541.949 469.168 546.008 469.056 549.735 468.428L546.47 449.061C544.457 449.401 544.103 449.111 544.582 449.279C544.882 449.384 545.285 449.594 545.671 449.937C546.044 450.268 546.23 450.569 546.287 450.677C546.327 450.751 546.048 450.217 545.845 448.379C545.651 446.614 545.595 444.365 545.598 441.375L525.958 441.358ZM549.735 468.428C553.575 467.78 557.249 466.549 560.44 464.339C563.742 462.053 566.009 459.078 567.474 455.782C570.079 449.919 570.108 442.832 570.113 437.242L550.473 437.225C550.47 440.228 550.421 442.531 550.228 444.43C550.036 446.333 549.742 447.319 549.526 447.807C549.379 448.136 549.318 448.152 549.26 448.193C549.091 448.309 548.371 448.741 546.47 449.061L549.735 468.428ZM570.113 437.179L569.763 373.81L550.123 373.918L550.473 437.287L570.113 437.179ZM564.304 380.302L584.454 376.905L581.189 357.538L561.039 360.935L564.304 380.302ZM576.819 370.489L577.252 441.095L596.892 440.974L596.459 370.368L576.819 370.489ZM577.252 441.026C577.248 445.692 576.749 453.253 572.895 460.125C569.34 466.466 562.291 473.382 546.644 476.019L549.909 495.386C571.036 491.824 583.38 481.584 590.026 469.73C596.375 458.408 596.887 446.734 596.892 441.043L577.252 441.026ZM546.644 476.019C538.595 477.377 533.291 476.748 529.852 475.563C526.544 474.423 524.449 472.601 522.969 470.495C519.656 465.784 518.997 459.043 519.001 454.175L499.361 454.158C499.357 459.647 499.859 471.774 506.903 481.792C510.6 487.05 515.983 491.558 523.455 494.132C530.795 496.66 539.572 497.129 549.909 495.386L546.644 476.019ZM519.001 454.106L518.562 382.438L498.922 382.558L499.362 454.226L519.001 454.106ZM624.578 365.153L642.062 404.45L660.006 396.466L642.522 357.17L624.578 365.153ZM667.117 399.05L666.87 357.435L647.23 357.552L647.478 399.166L667.117 399.05ZM661.412 363.93L681.557 360.534L678.292 341.167L658.146 344.563L661.412 363.93ZM673.921 354.112L674.454 457.217L694.094 457.115L693.561 354.01L673.921 354.112ZM679.912 450.727L653.827 455.125L657.092 474.492L683.177 470.094L679.912 450.727ZM660.908 458.945L643.477 419.316L625.499 427.223L642.931 466.852L660.908 458.945ZM618.399 424.649L618.597 466.631L638.237 466.538L638.039 424.556L618.399 424.649ZM624.056 460.144L603.908 463.541L607.173 482.908L627.321 479.511L624.056 460.144ZM611.543 469.963L611.01 366.858L591.37 366.959L591.903 470.064L611.543 469.963ZM605.552 373.348L631.648 368.948L628.383 349.581L602.287 353.981L605.552 373.348ZM718.78 361.328L695.339 365.28L698.604 384.647L722.045 380.695L718.78 361.328ZM702.974 371.694L702.843 351.367L683.204 351.494L683.335 371.821L702.974 371.694ZM697.385 357.865L779.597 344.005L776.332 324.638L694.12 338.498L697.385 357.865ZM771.962 337.591L772.093 357.918L791.733 357.791L791.602 337.464L771.962 337.591ZM777.552 351.42L752.008 355.726L755.274 375.093L780.817 370.787L777.552 351.42ZM741.092 368.699L741.459 445.917L761.099 445.824L760.732 368.606L741.092 368.699ZM746.917 439.43L726.771 442.827L730.036 462.194L750.182 458.797L746.917 439.43ZM734.406 449.252L734.049 374.177L714.41 374.27L714.766 449.345L734.406 449.252ZM695.339 365.28C699.316 364.61 702.948 367.661 702.974 371.694L683.335 371.821C683.387 379.887 690.65 385.988 698.604 384.647L695.339 365.28ZM722.045 380.695C718.063 381.367 714.429 378.308 714.41 374.27L734.049 374.177C734.011 366.102 726.743 359.986 718.78 361.328L722.045 380.695ZM611.01 366.858C611.027 370.067 608.716 372.814 605.552 373.348L602.287 353.981C595.959 355.048 591.337 360.543 591.37 366.959L611.01 366.858ZM603.908 463.541C607.888 462.87 611.522 465.926 611.543 469.963L591.903 470.064C591.945 478.137 599.212 484.25 607.173 482.908L603.908 463.541ZM653.827 455.125C656.784 454.626 659.701 456.2 660.908 458.945L642.931 466.852C645.345 472.341 651.179 475.488 657.092 474.492L653.827 455.125ZM674.454 457.217C674.437 454.008 676.749 451.26 679.912 450.727L683.177 470.094C689.505 469.027 694.127 463.532 694.094 457.115L674.454 457.217ZM681.557 360.534C677.576 361.205 673.942 358.148 673.921 354.112L693.561 354.01C693.519 345.937 686.253 339.825 678.292 341.167L681.557 360.534ZM666.87 357.435C666.889 360.646 664.577 363.396 661.412 363.93L658.146 344.563C651.815 345.631 647.192 351.132 647.23 357.552L666.87 357.435ZM569.763 373.81C569.781 377.019 567.469 379.768 564.304 380.302L561.039 360.935C554.71 362.002 550.088 367.5 550.123 373.918L569.763 373.81ZM533.249 385.537C529.269 386.208 525.636 383.154 525.614 379.118L545.253 379.009C545.209 370.938 537.943 364.829 529.984 366.171L533.249 385.537ZM509.838 369.567C503.506 370.635 498.883 376.137 498.922 382.558L518.562 382.438C518.581 385.649 516.269 388.4 513.103 388.934L509.838 369.567ZM447.911 467.56C451.901 466.888 455.54 469.959 455.547 474.005L435.907 474.038C435.92 482.13 443.197 488.272 451.176 486.927L447.911 467.56ZM446.711 407.198C440.388 408.264 435.767 413.753 435.795 420.166L455.435 420.079C455.449 423.286 453.139 426.031 449.977 426.564L446.711 407.198ZM447.865 428.342C451.847 427.671 455.482 430.73 455.5 434.769L435.86 434.856C435.896 442.933 443.165 449.052 451.13 447.709L447.865 428.342ZM421.473 494.298C425.454 493.627 429.087 496.683 429.108 500.72L409.469 500.822C409.51 508.895 416.777 515.007 424.738 513.665L421.473 494.298ZM341.267 513.387C341.251 510.18 343.562 507.434 346.725 506.9L349.99 526.267C356.315 525.201 360.937 519.709 360.906 513.294L341.267 513.387ZM726.771 442.827C730.753 442.156 734.387 445.214 734.406 449.252L714.766 449.345C714.805 457.42 722.073 463.536 730.036 462.194L726.771 442.827ZM351.816 423.196C345.491 424.263 340.869 429.755 340.9 436.169L360.54 436.076C360.555 439.284 358.244 442.03 355.081 442.563L351.816 423.196ZM741.459 445.917C741.444 442.71 743.754 439.964 746.917 439.43L750.182 458.797C756.508 457.731 761.129 452.239 761.099 445.824L741.459 445.917ZM371.901 425.388C371.88 422.176 374.192 419.424 377.359 418.89L380.624 438.257C386.958 437.189 391.582 431.684 391.54 425.261L371.901 425.388ZM752.008 355.726C745.683 356.793 741.062 362.285 741.092 368.699L760.732 368.606C760.747 371.814 758.437 374.56 755.274 375.093L752.008 355.726ZM379.405 411.475C375.428 412.145 371.796 409.094 371.77 405.061L391.409 404.934C391.357 396.868 384.094 390.767 376.14 392.108L379.405 411.475ZM772.093 357.918C772.072 354.706 774.385 351.954 777.552 351.42L780.817 370.787C787.15 369.719 791.774 364.214 791.733 357.791L772.093 357.918ZM302.651 418.837C302.672 422.049 300.359 424.801 297.192 425.335L293.927 405.968C287.594 407.036 282.97 412.541 283.011 418.964L302.651 418.837ZM446.806 451.115C440.496 452.179 435.879 457.648 435.89 464.048L455.53 464.015C455.535 467.215 453.227 469.95 450.072 470.482L446.806 451.115ZM779.597 344.005C775.62 344.675 771.988 341.624 771.962 337.591L791.602 337.464C791.55 329.398 784.286 323.297 776.332 324.638L779.597 344.005ZM295.147 432.751C299.124 432.08 302.756 435.131 302.782 439.164L283.142 439.291C283.194 447.357 290.458 453.458 298.412 452.117L295.147 432.751ZM643.477 419.316C637.758 406.314 618.332 410.446 618.399 424.649L638.039 424.556C638.073 431.658 628.359 433.724 625.499 427.223L643.477 419.316ZM217.112 509.412C217.296 512.651 215.273 515.15 212.893 516.077L205.763 497.777C200.871 499.682 197.166 504.596 197.503 510.527L217.112 509.412ZM702.843 351.367C702.864 354.578 700.552 357.331 697.385 357.865L694.12 338.498C687.786 339.566 683.162 345.071 683.204 351.494L702.843 351.367ZM321.853 448.165C317.871 448.836 314.237 445.778 314.217 441.74L333.857 441.647C333.819 433.572 326.551 427.456 318.588 428.798L321.853 448.165ZM642.062 404.45C647.827 417.407 667.201 413.231 667.117 399.05L647.478 399.166C647.435 392.075 657.123 389.987 660.006 396.466L642.062 404.45ZM261.298 447.535C263.389 446.72 265.411 447.127 266.734 447.86C267.965 448.541 268.801 449.575 269.23 450.733L250.816 457.563C252.897 463.174 259.946 469.139 268.427 465.835L261.298 447.535ZM482.794 434.782C478.785 442.017 482.309 449.782 486.878 453.379L499.027 437.948C499.851 438.596 500.32 439.384 500.545 440.198C500.777 441.033 500.916 442.599 499.973 444.3L482.794 434.782ZM642.522 357.17C640.093 351.71 634.276 348.588 628.383 349.581L631.648 368.948C628.702 369.445 625.793 367.883 624.578 365.153L642.522 357.17ZM288.706 457.935C293.639 456.013 297.39 451.012 296.95 444.989L277.362 446.421C277.12 443.113 279.181 440.567 281.577 439.634L288.706 457.935ZM179.755 439.565C179.772 442.773 177.461 445.521 174.297 446.055L171.032 426.688C164.705 427.755 160.083 433.25 160.116 439.666L179.755 439.565ZM172.653 536.248C176.633 535.577 180.267 538.633 180.288 542.67L160.648 542.771C160.69 550.845 167.957 556.957 175.918 555.615L172.653 536.248ZM419.852 384.738C413.525 385.805 408.903 391.3 408.936 397.717L428.576 397.615C428.592 400.824 426.281 403.572 423.117 404.105L419.852 384.738ZM187.031 539.393C187.015 536.185 189.326 533.437 192.49 532.904L195.755 552.27C202.082 551.203 206.704 545.708 206.671 539.292L187.031 539.393ZM618.597 466.631C618.582 463.423 620.893 460.677 624.056 460.144L627.321 479.511C633.646 478.444 638.268 472.953 638.237 466.538L618.597 466.631ZM232.996 508.245C230.868 509.074 228.773 508.647 227.374 507.817C226.058 507.037 225.136 505.812 224.75 504.385L243.711 499.266C241.973 492.827 234.54 486.565 225.867 489.944L232.996 508.245ZM326.578 510.297C330.56 509.626 334.194 512.684 334.214 516.722L314.574 516.815C314.612 524.89 321.88 531.006 329.843 529.664L326.578 510.297ZM584.454 376.905C580.476 377.575 576.844 374.523 576.819 370.489L596.459 370.368C596.409 362.3 589.145 356.197 581.189 357.538L584.454 376.905ZM206.138 436.187C206.097 428.114 198.83 422.001 190.869 423.344L194.134 442.71C190.153 443.381 186.519 440.325 186.498 436.288L206.138 436.187ZM201.315 363.291L239.502 417.454L255.553 406.137L217.366 351.974L201.315 363.291ZM245.843 402.121L212.506 407.926L215.876 427.275L249.212 421.47L245.843 402.121ZM222.206 411.927L199.96 380.501L183.93 391.848L206.176 423.274L222.206 411.927ZM183.587 381.018L175.603 393.962L192.319 404.273L200.303 391.33L183.587 381.018ZM174.141 399.167L174.261 422.893L193.9 422.794L193.781 399.068L174.141 399.167ZM182.396 413.169L155.665 417.824L159.034 437.173L185.765 432.518L182.396 413.169ZM167.17 427.449L166.608 315.229L146.968 315.327L147.53 427.548L167.17 427.449ZM158.473 324.952L185.204 320.298L181.834 300.949L155.104 305.603L158.473 324.952ZM173.699 310.676L173.917 350.912L193.556 350.806L193.339 310.57L173.699 310.676ZM192.09 356.023L219.986 310.891L203.279 300.565L175.383 345.696L192.09 356.023ZM213.317 315.402L246.5 309.624L243.131 290.275L209.948 296.053L213.317 315.402ZM236.451 294.805L200.976 352.489L217.705 362.777L253.18 305.094L236.451 294.805ZM325.889 388.183L299.465 392.784L302.835 412.133L329.258 407.532L325.889 388.183ZM310.97 402.42L310.878 378.849L291.238 378.926L291.33 402.497L310.97 402.42ZM299.373 369.213L276.944 373.119L280.313 392.467L302.743 388.562L299.373 369.213ZM268.809 382.831L268.901 406.402L288.541 406.326L288.449 382.755L268.809 382.831ZM277.036 396.689L250.613 401.291L253.982 420.639L280.405 416.038L277.036 396.689ZM262.117 410.927L261.83 337.488L242.19 337.565L242.477 411.003L262.117 410.927ZM261.83 337.467C261.77 327.537 262.599 319.324 266.249 312.993C269.518 307.321 276.013 301.597 291.173 298.957L287.803 279.608C268.398 282.987 256.092 291.287 249.234 303.184C242.755 314.421 242.128 327.32 242.19 337.586L261.83 337.467ZM291.173 298.957C306.635 296.264 311.389 300.091 313.369 302.806C316.385 306.941 317.404 314.107 317.467 324.478L337.106 324.359C337.047 314.535 336.449 301.122 329.238 291.234C320.99 279.925 306.907 276.281 287.803 279.608L291.173 298.957ZM317.467 324.457L317.753 397.895L337.393 397.819L337.106 324.38L317.467 324.457ZM310.682 328.885C310.654 326.868 310.563 324.441 310.097 322.109C309.624 319.742 308.605 316.621 306.077 313.945C300.719 308.276 293.027 308.864 287.806 309.773L291.175 329.122C291.662 329.037 292.09 328.974 292.467 328.929C292.843 328.883 293.157 328.856 293.415 328.842C293.673 328.829 293.863 328.828 293.992 328.832C294.122 328.836 294.177 328.844 294.17 328.843C294.16 328.842 293.843 328.797 293.361 328.572C293.118 328.458 292.85 328.307 292.573 328.109C292.437 328.01 292.302 327.904 292.172 327.79C292.041 327.676 291.918 327.558 291.802 327.435C291.569 327.188 291.382 326.943 291.235 326.716C291.089 326.492 290.99 326.298 290.926 326.155C290.863 326.014 290.833 325.919 290.823 325.888C290.814 325.858 290.822 325.877 290.838 325.959C290.854 326.042 290.877 326.171 290.9 326.357C290.923 326.542 290.946 326.769 290.966 327.045C290.986 327.321 291.003 327.633 291.016 327.988C291.029 328.343 291.038 328.73 291.044 329.154L310.682 328.885ZM287.806 309.773C281.936 310.795 275.833 312.89 272.038 318.39C268.541 323.458 268.565 329.428 268.615 333.06L288.253 332.791C288.228 330.999 288.287 330.003 288.386 329.389C288.471 328.862 288.516 329.091 288.203 329.544C287.851 330.054 287.524 330.167 287.797 330.033C288.184 329.843 289.161 329.473 291.175 329.122L287.806 309.773ZM268.614 332.923L268.609 355.067L288.249 355.071L288.254 332.928L268.614 332.923ZM280.114 364.744L302.543 360.838L299.174 341.489L276.744 345.395L280.114 364.744ZM310.678 351.166L310.683 329.022L291.043 329.018L291.038 351.161L310.678 351.166ZM343.303 292.767L381.709 286.08L378.34 266.731L339.934 273.419L343.303 292.767ZM381.709 286.08C394.476 283.857 400.381 285.759 403.219 288.155C406.074 290.564 408.782 295.958 408.83 308.227L428.47 308.15C428.415 294.122 425.482 281.244 415.887 273.146C406.275 265.033 392.919 264.192 378.34 266.731L381.709 286.08ZM408.83 308.227C408.877 320.123 406.408 327.608 402.29 332.576C398.182 337.53 391.156 341.517 378.778 343.673L382.147 363.022C397.113 360.416 409.233 354.972 417.409 345.111C425.574 335.264 428.526 322.551 428.47 308.15L408.83 308.227ZM378.778 343.673L366.795 345.76L370.164 365.108L382.147 363.022L378.778 343.673ZM358.66 355.468L358.783 390.747L378.423 390.678L378.299 355.4L358.66 355.468ZM366.919 381.038L340.495 385.639L343.864 404.988L370.288 400.387L366.919 381.038ZM352 395.265L351.438 283.044L331.799 283.142L332.36 395.363L352 395.265ZM369.992 337.54L382.897 335.293L379.527 315.944L366.623 318.191L369.992 337.54ZM382.896 335.293C386.315 334.698 392.085 333.675 396.379 329.456C401.093 324.825 402.066 318.555 402.046 312.757L382.406 312.823C382.413 314.779 382.226 315.725 382.125 316.073C382.061 316.293 382.145 315.908 382.615 315.446C383.028 315.04 383.281 315.034 382.787 315.208C382.213 315.41 381.268 315.641 379.527 315.944L382.896 335.293ZM402.046 312.757C402.029 307.664 401.299 299.951 394.646 295.774C391.553 293.833 388.322 293.464 385.993 293.456C383.686 293.448 381.349 293.805 379.434 294.139L382.803 313.487C383.638 313.342 384.304 313.24 384.857 313.175C385.414 313.11 385.749 313.095 385.928 313.096C386.108 313.096 385.996 313.113 385.697 313.045C385.372 312.972 384.825 312.798 384.204 312.409C383.899 312.217 383.608 311.993 383.341 311.741C383.074 311.49 382.856 311.235 382.683 310.994C382.337 310.516 382.212 310.161 382.192 310.103C382.177 310.054 382.236 310.222 382.296 310.706C382.356 311.183 382.403 311.871 382.406 312.823L402.046 312.757ZM379.434 294.139L366.529 296.386L369.899 315.735L382.803 313.487L379.434 294.139ZM358.394 306.102L358.487 327.908L378.127 327.824L378.034 306.018L358.394 306.102ZM429.567 277.746L467.973 271.058L464.604 251.71L426.198 258.397L429.567 277.746ZM467.973 271.058C480.74 268.835 486.645 270.738 489.483 273.133C492.338 275.543 495.046 280.937 495.094 293.206L514.734 293.129C514.679 279.101 511.746 266.223 502.151 258.124C492.539 250.012 479.183 249.171 464.604 251.71L467.973 271.058ZM495.094 293.206C495.141 305.102 492.672 312.587 488.554 317.554C484.446 322.508 477.42 326.496 465.042 328.652L468.411 348.001C483.378 345.394 495.497 339.951 503.673 330.09C511.838 320.243 514.79 307.529 514.734 293.129L495.094 293.206ZM465.042 328.652L453.059 330.738L456.428 350.087L468.411 348.001L465.042 328.652ZM444.924 340.447L445.047 375.726L464.687 375.657L464.564 340.378L444.924 340.447ZM453.183 366.017L426.759 370.618L430.128 389.967L456.552 385.366L453.183 366.017ZM438.264 380.243L437.702 268.023L418.063 268.121L418.624 380.341L438.264 380.243ZM456.256 322.519L469.161 320.272L465.791 300.923L452.887 303.17L456.256 322.519ZM469.161 320.272C472.579 319.677 478.349 318.653 482.643 314.435C487.357 309.803 488.33 303.533 488.31 297.735L468.67 297.802C468.677 299.757 468.49 300.704 468.389 301.051C468.325 301.272 468.409 300.886 468.879 300.425C469.292 300.018 469.545 300.013 469.052 300.187C468.477 300.389 467.532 300.62 465.791 300.923L469.161 320.272ZM488.31 297.735C488.293 292.642 487.563 284.929 480.91 280.753C477.817 278.811 474.586 278.442 472.257 278.435C469.95 278.427 467.613 278.784 465.698 279.117L469.067 298.466C469.902 298.321 470.568 298.219 471.121 298.154C471.678 298.089 472.014 298.074 472.192 298.074C472.372 298.075 472.26 298.092 471.961 298.024C471.636 297.95 471.089 297.777 470.468 297.387C470.163 297.196 469.872 296.972 469.605 296.72C469.338 296.469 469.12 296.213 468.947 295.973C468.601 295.495 468.476 295.14 468.457 295.081C468.441 295.033 468.501 295.201 468.561 295.684C468.62 296.162 468.667 296.849 468.67 297.802L488.31 297.735ZM465.698 279.117L452.794 281.364L456.163 300.713L469.067 298.466L465.698 279.117ZM444.658 291.081L444.752 312.886L464.391 312.802L464.298 290.997L444.658 291.081ZM578.067 240.271L578.239 267.84L597.879 267.717L597.706 240.149L578.067 240.271ZM586.374 258.104L539.979 266.183L543.349 285.531L589.743 277.453L586.374 258.104ZM531.844 275.923L531.943 290.668L551.583 290.536L551.484 275.791L531.844 275.923ZM543.448 300.276L576.477 294.525L573.108 275.176L540.079 280.927L543.448 300.276ZM564.973 284.911L565.145 312.48L584.785 312.357L584.612 284.789L564.973 284.911ZM573.28 302.744L540.251 308.495L543.62 327.844L576.649 322.093L573.28 302.744ZM532.115 318.134L532.061 332.905L551.701 332.977L551.755 318.206L532.115 318.134ZM543.566 342.616L589.96 334.537L586.591 315.188L540.196 323.267L543.566 342.616ZM578.456 324.924L578.628 352.492L598.268 352.369L598.096 324.801L578.456 324.924ZM586.763 342.756L513.023 355.597L516.393 374.945L590.133 362.105L586.763 342.756ZM524.528 365.222L523.966 253.001L504.327 253.1L504.888 365.32L524.528 365.222ZM515.831 262.725L589.571 249.884L586.202 230.536L512.462 243.376L515.831 262.725ZM616.264 233.604L616.653 318.256L636.293 318.166L635.904 233.513L616.264 233.604ZM628.158 327.885L671.634 320.315L668.264 300.966L624.789 308.537L628.158 327.885ZM660.129 310.702L660.301 338.27L679.941 338.147L679.769 310.579L660.129 310.702ZM668.437 328.534L598.537 340.706L601.906 360.055L671.806 347.883L668.437 328.534ZM610.042 350.331L609.48 238.111L589.841 238.209L590.402 350.43L610.042 350.331ZM601.345 247.834L627.769 243.233L624.399 223.884L597.976 228.485L601.345 247.834ZM701.037 222.822L725.663 279.988L743.7 272.217L719.074 215.051L701.037 222.822ZM744.501 276.046L744.148 214.653L724.509 214.766L724.862 276.159L744.501 276.046ZM736.013 224.384L762.437 219.783L759.067 200.434L732.644 205.035L736.013 224.384ZM750.932 210.158L751.493 322.378L771.133 322.28L770.572 210.06L750.932 210.158ZM759.629 312.655L728.596 318.059L731.966 337.407L762.998 332.004L759.629 312.655ZM739.316 323.885L714.76 266.226L696.691 273.921L721.246 331.581L739.316 323.885ZM695.906 270.118L696.188 332.005L715.828 331.915L715.545 270.028L695.906 270.118ZM704.324 322.285L677.9 326.886L681.269 346.235L707.693 341.634L704.324 322.285ZM689.405 336.512L688.843 224.291L669.204 224.389L669.765 336.61L689.405 336.512ZM680.708 234.015L711.74 228.611L708.371 209.262L677.339 214.666L680.708 234.015Z" fill="#E6007E" mask="url(#path-33-outside-1_27_917)"/>
</g>
<defs>
<filter id="filter0_d_27_917" x="0.644451" y="108.378" width="933.358" height="522.864" filterUnits="userSpaceOnUse" color-interpolation-filters="sRGB">
<feFlood flood-opacity="0" result="BackgroundImageFix"/>
<feColorMatrix in="SourceAlpha" type="matrix" values="0 0 0 0 0 0 0 0 0 0 0 0 0 0 0 0 0 0 127 0" result="hardAlpha"/>
<feOffset dy="5.41105"/>
<feGaussianBlur stdDeviation="9.06352"/>
<feComposite in2="hardAlpha" operator="out"/>
<feColorMatrix type="matrix" values="0 0 0 0 0 0 0 0 0 0 0 0 0 0 0 0 0 0 0.25 0"/>
<feBlend mode="normal" in2="BackgroundImageFix" result="effect1_dropShadow_27_917"/>
<feBlend mode="normal" in="SourceGraphic" in2="effect1_dropShadow_27_917" result="shape"/>
</filter>
</defs>
</svg>
