<svg width="1920" height="3348" viewBox="0 0 1920 3348" fill="#4dc2d3"
    xmlns="http://www.w3.org/2000/svg">
    <g opacity="0.13">
        <path
            d="M952.347 415.166L1099.49 3348H1397.29L953.728 413.478L952.879 407.66L1089.09 -2579H790.55L948.102 415.081L952.347 415.166Z"
            fill="white" />
        <path
            d="M928.248 410.718L929.417 411.365L-1811.48 3348H-1301.24L931.115 412.3L934.407 414.168L-863.626 3348H-477.393L935.999 415.06L937.591 415.973L-127.044 3348H198.037L939.29 416.886L941.095 417.948L939.29 416.653L939.609 415.463L941.519 417.173L506.556 3348H804.034L943.537 414.826L943.962 415.41L943.537 414.72V413.829L944.279 415.294L943.537 413.425L943.643 412.693L944.279 415.315L943.643 411.291L943.749 408.722L944.598 408.817L943.749 408.669L944.917 407.384H943.856L944.492 405.537L943.962 405.633L944.279 399.146L943.218 405.792L942.794 405.898L942.582 403.881L943.749 399.071L942.369 402.861L942.263 402.055L943.749 398.997L942.156 401.524L941.944 399.868L942.688 399.454L941.944 399.783L941.731 398.381L942.156 397.755L941.731 398.275L487.128 -2579H173.512L939.715 397.67L938.122 398.774L-157.726 -2579H-514.339L936.742 399.825L935.043 401.004L-908.534 -2579H-1354.45L933.663 402.001L929.841 404.698L-1875.91 -2579H-1970.53C-1985.46 -2564.25 -2000.22 -2549.24 -2015 -2534.27V-2149.37L928.037 405.441L921.455 404.083L-2015 -1665.41V-1243.83L913.598 402.469L-2015 -867.546V-521.433L882.172 396.014L-2015 -198.624V111.679L912.429 405.611L918.269 407.416L-2015 413.34V715.978L918.269 410.145L914.341 411.843L-2015 1026.11V1351.37L886.632 424.052L-2015 1696.57V2075.16L915.615 414.741L915.721 414.731L-2015 2497.93V2985.45L923.259 412.321L928.248 410.718Z"
            fill="white" />
        <path
            d="M958.718 415.707L958.823 416.312L957.019 417.629L958.929 416.557L1706.77 3348H2032.59L960.522 415.633L961.69 414.975L2383.36 3348H2770.23L963.176 414.115L964.45 413.414L961.266 413.425L962.221 412.575L961.902 411.928L960.735 413.127L960.947 413.457L959.886 414.009L959.673 413.457L958.187 413.467L958.612 415.41L956.807 417.395L958.718 415.707Z"
            fill="white" />
        <path
            d="M3912.05 2065.89V1688.4L1002.78 417.661L3912.05 1343.19V1018.45L1006.39 413.128L992.692 413.223L987.384 410.919L1003.94 412.608L979.74 407.543L976.873 406.312L981.756 403.509L3912.05 92.6648V-218.689L1007.13 395.186L3912.05 -542.178V-889.756L1007.56 388.816L3912.05 -1267.88V-1691.57L981.014 400.473L974.113 402.14L3912.05 -2180.2V-2535.69C3897.72 -2550.2 3883.6 -2564.74 3869.06 -2579H3740.49L970.185 402.968L969.547 403.106L966.682 401.843L3223.88 -2579H2782.02L964.983 401.099L961.797 399.73L2390.16 -2579H2035.24L960.204 398.827L959.143 398.095L1705.17 -2579H1392.62L957.55 396.927L957.233 396.651L957.55 396.969L957.444 397.819L956.701 397.5L957.444 397.904L957.126 399.761L955.64 398.201L957.126 400.069L956.701 402.756L954.472 399.135L954.79 400.547L954.047 399.294L955.321 402.469L954.685 402.342L956.17 405.919L953.516 406.492L956.17 406.206L955.959 407.703L956.701 407.936L956.808 407.788L957.02 407.82L956.808 408.319L957.126 409.444L957.763 408.106L957.657 407.873L957.869 407.883L958.082 407.501L959.462 408.064L958.507 406.524L961.373 405.664L961.797 406.259L960.629 408.17L961.797 408.276L962.541 407.214L963.39 408.265L962.965 408.425L964.028 409.104L964.664 408.85L964.239 409.412L964.876 410.282L966.044 409.274L965.513 408.669L966.575 408.796L969.441 407.342L970.291 408.127L969.123 409.04L971.671 409.295V409.285L975.599 409.72L973.794 408.425L988.976 413.234L984.623 413.255L3912.05 2065.89Z"
            fill="white" />
        <path d="M3912.05 392.351L1008.72 413.096L3912.05 709.693V392.351Z" fill="white" />
        <path d="M3721.06 3348L969.865 413.351L967.317 413.382L3208.38 3348H3721.06Z" fill="white" />
        <path d="M3912.05 2488.02L980.694 413.297L976.341 413.329L3912.05 2974.25V2488.02Z"
            fill="white" />
    </g>
</svg>